<?xml version="1.0" encoding="utf-8"?>
<!-- Generator: Adobe Illustrator 16.0.3, SVG Export Plug-In . SVG Version: 6.00 Build 0)  -->
<!DOCTYPE svg PUBLIC "-//W3C//DTD SVG 1.1//EN" "http://www.w3.org/Graphics/SVG/1.1/DTD/svg11.dtd">
<svg version="1.1" id="レイヤー_1" xmlns="http://www.w3.org/2000/svg" xmlns:xlink="http://www.w3.org/1999/xlink" x="0px"
	 y="0px" width="11.688px" height="39.688px" viewBox="0 0 11.688 39.688" enable-background="new 0 0 11.688 39.688"
	 xml:space="preserve">
<g>
	<path fill="#231815" d="M7.617,10.123c0.219,0.143,0.461,0.267,0.732,0.372c0.291,0.104,0.518,0.176,0.674,0.214
		c0.555,0.142,1.172,0.281,1.846,0.416c0.15,0.053,0.236,0.109,0.26,0.169c-0.031,0.053-0.09,0.098-0.182,0.135
		c-0.352,0.082-1.08,0.199-2.182,0.349c-0.322,0.038-0.596-0.038-0.82-0.225C6.528,10.3,5.257,9.066,4.132,7.851
		c-0.022,0.953-0.067,1.988-0.135,3.105c0.008,0.112,0.068,0.135,0.181,0.067c0.434-0.247,0.854-0.464,1.259-0.651
		c0.203-0.128,0.361-0.195,0.473-0.203c0.076,0.008,0.102,0.053,0.08,0.135c-0.047,0.068-0.146,0.165-0.305,0.293
		c-1.373,1.072-2.125,1.739-2.261,2.001c-0.105,0.15-0.214,0.192-0.327,0.124c-0.112-0.105-0.213-0.274-0.304-0.506
		c-0.082-0.188-0.067-0.352,0.045-0.494c0.346-0.428,0.529-0.859,0.552-1.294c0.194-1.928,0.236-3.514,0.124-4.759
		c-0.038-0.502-0.158-0.967-0.36-1.396c-0.098-0.134-0.09-0.228,0.023-0.281c0.06-0.051,0.18-0.048,0.36,0.012
		c0.067,0.038,0.157,0.09,0.27,0.157c0.316-0.052,0.698-0.124,1.148-0.213c0.48-0.09,0.911-0.169,1.294-0.237
		c0.285-0.059,0.539-0.116,0.765-0.168c0.111-0.052,0.27-0.038,0.471,0.045C7.865,3.82,8.125,4.01,8.26,4.16
		c0.104,0.128,0.1,0.249-0.012,0.361C8.024,4.739,7.877,4.99,7.809,5.274c-0.246,1.26-0.438,2.01-0.574,2.25
		c-0.141,0.195-0.258,0.255-0.348,0.18C6.776,7.653,6.674,7.566,6.584,7.446c-1.013,0.03-1.755,0.097-2.228,0.202
		c0.69,0.593,1.373,1.133,2.048,1.621l0.73-0.731c0.201-0.202,0.393-0.431,0.572-0.686C7.844,7.693,7.91,7.524,7.91,7.344
		c-0.045-0.128,0-0.191,0.135-0.191c0.105-0.022,0.271,0.042,0.496,0.191c0.225,0.15,0.393,0.311,0.506,0.484
		c0.082,0.165,0.023,0.288-0.18,0.371c-0.232,0.075-0.439,0.18-0.619,0.315C8.031,8.628,7.809,8.759,7.584,8.909
		c-0.256,0.15-0.572,0.326-0.955,0.528C6.951,9.677,7.281,9.906,7.617,10.123z M4.301,4.577c-0.03,0-0.057,0.007-0.079,0.022
		C4.215,4.637,4.211,4.685,4.211,4.746C4.15,5.038,4.121,5.36,4.121,5.714l1.09-0.281c0.316-0.091,0.574-0.117,0.778-0.079
		c0.188,0.03,0.326,0.108,0.416,0.237c0.061,0.104,0,0.168-0.181,0.19c-0.54,0.06-1.169,0.142-1.89,0.248H4.132
		c0.008,0.375,0.011,0.776,0.011,1.204c0.503-0.06,1.081-0.158,1.733-0.292c0.217-0.061,0.383-0.057,0.496,0.011
		c0-0.016,0.021-0.022,0.066-0.022c0.121-0.023,0.203-0.09,0.248-0.203C6.768,6.546,6.91,5.86,7.112,4.667
		c0.008-0.135-0.045-0.273-0.156-0.416C6.887,4.168,6.752,4.146,6.551,4.184C5.59,4.296,4.84,4.427,4.301,4.577z M4.75,2.361
		C4.72,2.248,4.728,2.17,4.773,2.124c0.044-0.03,0.146-0.038,0.304-0.022c0.24,0.022,0.483,0.056,0.732,0.101
		C6.04,2.271,6.19,2.372,6.259,2.507c0.113,0.255,0.156,0.458,0.134,0.608C6.356,3.241,6.292,3.313,6.202,3.328
		c-0.15,0.015-0.293-0.026-0.428-0.125L5.223,2.755C4.953,2.59,4.796,2.458,4.75,2.361z"/>
	<path fill="#231815" d="M3.074,15.784c-0.082-0.166-0.045-0.26,0.112-0.281c0.128-0.008,0.304,0.063,0.529,0.213
		c0.203,0.157,0.327,0.289,0.371,0.394c0.038,0.105,0.023,0.199-0.044,0.281c-0.112,0.105-0.225,0.248-0.337,0.427
		c0.254,0.03,0.506,0.075,0.754,0.135c0.232,0.068,0.382,0.176,0.45,0.326c0.067,0.166,0.101,0.3,0.101,0.405
		c-0.015,0.082-0.056,0.131-0.124,0.146c-0.098,0.022-0.191,0-0.281-0.067c-0.277-0.195-0.54-0.364-0.788-0.506
		c-0.135-0.075-0.225-0.139-0.27-0.191c-0.038,0.031-0.057,0.068-0.057,0.113c-0.465,0.75-0.9,1.373-1.305,1.868
		c-0.405,0.495-0.765,0.884-1.08,1.169c-0.188,0.173-0.326,0.267-0.416,0.282c-0.105,0.022-0.146-0.012-0.124-0.101
		c0.008-0.045,0.056-0.106,0.146-0.181c0.518-0.66,0.979-1.287,1.384-1.879c0.397-0.615,0.731-1.252,1.001-1.912
		C3.172,16.229,3.164,16.016,3.074,15.784z M2.793,21.273c-0.209,0.075-0.416,0.099-0.619,0.068
		c-0.15-0.023-0.281-0.061-0.394-0.111c-0.188-0.113-0.157-0.196,0.091-0.249c0.367-0.052,0.719-0.123,1.057-0.214
		c-0.015-0.172-0.022-0.284-0.022-0.337c-0.022-0.172-0.044-0.308-0.067-0.406l-0.067-0.102c-0.143,0.016-0.271,0.019-0.383,0.012
		c-0.173-0.022-0.315-0.06-0.427-0.112c-0.21-0.105-0.181-0.191,0.09-0.259c0.285-0.053,0.563-0.116,0.833-0.191
		c0.209-0.075,0.427-0.157,0.652-0.248c0.203-0.112,0.417-0.158,0.642-0.134c0.209,0.03,0.348,0.086,0.416,0.169
		c0.03,0.059,0.022,0.119-0.022,0.18c-0.038,0.029-0.147,0.075-0.327,0.134c-0.352,0.098-0.697,0.199-1.035,0.304
		c0.075,0.06,0.169,0.135,0.281,0.226c0.061,0.067,0.068,0.169,0.023,0.303c-0.008,0.076-0.011,0.167-0.011,0.271l0.27-0.102
		c0.181-0.104,0.383-0.139,0.608-0.102c0.188,0.037,0.315,0.099,0.382,0.181c0.022,0.052,0.012,0.108-0.034,0.169
		c-0.044,0.022-0.18,0.074-0.405,0.156c-0.285,0.068-0.563,0.144-0.833,0.226l-0.056,1.845c0.3-0.104,0.596-0.202,0.889-0.292
		c0.09-0.029,0.157-0.021,0.202,0.021c-0.008,0.068-0.056,0.131-0.146,0.192c-0.098,0.075-0.214,0.153-0.349,0.235l-1.069,0.563
		C2.721,23.798,2.5,23.95,2.298,24.13c-0.098,0.068-0.181,0.092-0.248,0.068c-0.263-0.127-0.473-0.25-0.63-0.371
		c-0.083-0.061-0.112-0.139-0.091-0.236c-0.007-0.082,0.045-0.127,0.158-0.135c0.188,0,0.337-0.015,0.45-0.046
		c0.345-0.112,0.686-0.218,1.023-0.313c-0.022-0.804-0.034-1.422-0.034-1.857C2.861,21.247,2.815,21.259,2.793,21.273z M1.6,21.848
		c0.008-0.083,0.045-0.117,0.112-0.102c0.083,0.022,0.248,0.097,0.496,0.226c0.142,0.059,0.247,0.145,0.315,0.258
		c0.06,0.143,0.079,0.259,0.056,0.35c-0.052,0.119-0.125,0.175-0.214,0.168c-0.127-0.016-0.236-0.082-0.326-0.203
		c-0.15-0.165-0.281-0.337-0.394-0.517C1.593,21.96,1.578,21.9,1.6,21.848z M7.596,19.114c-0.27,0.067-0.518,0.142-0.742,0.225
		c-0.225,0.075-0.439,0.108-0.64,0.102c-0.053-0.008-0.102-0.016-0.146-0.023c-0.061,0.188-0.09,0.401-0.09,0.642
		c-0.045,0.232-0.068,0.481-0.068,0.743c-0.029,0.308-0.066,0.603-0.111,0.89c0.127,0.021,0.213,0.051,0.258,0.088
		c-0.008,0.008,0,0.02,0.023,0.035c0.201-0.06,0.392-0.115,0.574-0.169c0.164-0.06,0.324-0.14,0.482-0.235
		c0.104-0.076,0.213-0.084,0.326-0.023c0.148,0.098,0.293,0.176,0.428,0.236c0.127,0.082,0.135,0.202,0.021,0.359
		c-0.135,0.143-0.246,0.469-0.338,0.979c0.113,0.075,0.17,0.131,0.17,0.169c-0.023,0.046-0.057,0.075-0.102,0.091
		c-0.533,0.037-0.91,0.086-1.137,0.146c-0.074,0.014-0.145,0.02-0.212,0.012c-0.014-0.008-0.033-0.012-0.057-0.012
		c-0.014,0.143-0.033,0.258-0.055,0.349c-0.039,0.089-0.102,0.067-0.191-0.067c-0.105-0.12-0.158-0.262-0.158-0.428
		c-0.068-0.391-0.135-0.724-0.203-1.002c-0.06,0.129-0.112,0.268-0.157,0.418c-0.143,0.344-0.36,0.681-0.653,1.012
		c-0.27,0.322-0.596,0.596-0.978,0.82c-0.233,0.121-0.394,0.188-0.484,0.203c-0.097-0.008-0.101-0.049-0.011-0.123
		c0.083-0.091,0.18-0.185,0.292-0.281c0.112-0.091,0.214-0.182,0.304-0.271c0.36-0.345,0.63-0.68,0.81-1.001
		c0.225-0.405,0.394-0.836,0.506-1.295c0.104-0.584,0.146-1.105,0.124-1.564c-0.015-0.18-0.022-0.34-0.022-0.483
		c-0.022-0.218-0.091-0.408-0.203-0.574c-0.06-0.097-0.044-0.168,0.045-0.213c0.112-0.068,0.258-0.061,0.439,0.022
		c0.104,0.022,0.225,0.075,0.359,0.158c0.398-0.083,0.777-0.18,1.136-0.293c0.104-0.044,0.225-0.09,0.359-0.135
		c-0.111-0.645-0.203-1.286-0.27-1.923c-0.061-0.292-0.113-0.543-0.158-0.754c-0.104-0.3-0.168-0.454-0.189-0.461
		c-0.15-0.172-0.135-0.281,0.045-0.326c-0.016-0.007,0.033-0.012,0.145-0.012c0.082,0.008,0.215,0.068,0.395,0.181
		c0.164,0.105,0.27,0.191,0.314,0.259c0.037,0.083,0.021,0.222-0.045,0.416c-0.037,0.285-0.033,0.604,0.012,0.957
		c0.066,0.532,0.146,1.02,0.236,1.462c0.029-0.022,0.078-0.044,0.146-0.068c0.201-0.105,0.416-0.146,0.641-0.124
		c0.211,0.03,0.348,0.086,0.416,0.169c0.029,0.06,0.021,0.12-0.021,0.18c-0.053,0.037-0.215,0.109-0.484,0.214
		c-0.211,0.053-0.406,0.112-0.586,0.18c0.121,0.638,0.248,1.155,0.383,1.553c0.135,0.458,0.293,0.884,0.473,1.282
		c0.127-0.291,0.225-0.566,0.293-0.821c0.098-0.404,0.113-0.78,0.045-1.125c-0.023-0.112,0.012-0.184,0.102-0.214
		c0.053-0.021,0.168,0,0.348,0.068c0.211,0.09,0.35,0.176,0.416,0.259c0.039,0.06,0.035,0.131-0.01,0.214
		c-0.084,0.188-0.158,0.378-0.225,0.574c-0.188,0.638-0.395,1.154-0.619,1.553c-0.037,0.022-0.057,0.052-0.057,0.089
		c0.262,0.45,0.539,0.83,0.832,1.138c0.15,0.172,0.258,0.255,0.326,0.247c0.105-0.037,0.236-0.383,0.395-1.035
		c0.053-0.203,0.111-0.297,0.18-0.281c0.053,0.007,0.078,0.124,0.078,0.35c-0.029,0.201-0.033,0.469-0.01,0.798
		c-0.008,0.337,0.01,0.603,0.055,0.798c0.045,0.316,0.045,0.515,0,0.598c-0.074,0.089-0.156,0.131-0.246,0.123
		c-0.113-0.016-0.281-0.104-0.508-0.27c-0.314-0.277-0.652-0.676-1.012-1.193c-0.164-0.225-0.314-0.465-0.449-0.72
		c-0.137,0.149-0.271,0.292-0.406,0.429c-0.338,0.329-0.719,0.613-1.146,0.854c-0.084,0.03-0.146,0.041-0.191,0.035
		c-0.068-0.023-0.068-0.061,0-0.113c0.563-0.556,0.955-0.99,1.182-1.306c0.098-0.142,0.201-0.284,0.314-0.427
		c-0.061-0.104-0.102-0.206-0.123-0.305c-0.279-0.6-0.541-1.417-0.789-2.452C7.66,19.477,7.617,19.293,7.596,19.114z M4.086,21.374
		c-0.03-0.104,0-0.16,0.091-0.168c0.12-0.008,0.236,0.029,0.348,0.111c0.098,0.076,0.18,0.155,0.248,0.236
		c0.029,0.061,0,0.109-0.09,0.146c-0.188,0.113-0.45,0.322-0.788,0.631c-0.038,0.029-0.079,0.045-0.125,0.045
		c-0.029-0.029-0.033-0.067-0.011-0.113c0.142-0.262,0.248-0.477,0.315-0.641C4.105,21.532,4.109,21.449,4.086,21.374z
		 M6.471,20.621c0.09-0.037,0.191-0.079,0.305-0.124c0.15-0.105,0.326-0.149,0.527-0.135c0.166,0.016,0.281,0.056,0.35,0.123
		c0.037,0.046,0.033,0.099-0.012,0.158c-0.016,0-0.068,0.019-0.158,0.056c-0.193,0.067-0.381,0.132-0.561,0.192
		c-0.174,0.075-0.35,0.107-0.529,0.1c-0.142,0-0.259-0.021-0.349-0.067C5.856,20.85,5.876,20.779,6.1,20.711
		C6.235,20.681,6.36,20.652,6.471,20.621z M6.214,23.097c0.24-0.038,0.517-0.105,0.832-0.203c0.016-0.015,0.045-0.022,0.09-0.022
		c0.021-0.233,0.057-0.442,0.1-0.63c0.031-0.203,0.023-0.318-0.021-0.35c-0.029-0.06-0.111-0.07-0.246-0.033
		c-0.203,0.045-0.416,0.098-0.642,0.158C6.243,22.031,6.169,22.046,6.1,22.06C6.108,22.234,6.145,22.579,6.214,23.097z M8.44,16.379
		c-0.029-0.082-0.023-0.138,0.021-0.169c0.031-0.022,0.102-0.022,0.215,0c0.232,0.045,0.461,0.102,0.686,0.169
		c0.195,0.083,0.326,0.192,0.395,0.327c0.066,0.188,0.09,0.334,0.066,0.439c-0.029,0.075-0.078,0.12-0.146,0.134
		c-0.104,0.008-0.201-0.026-0.291-0.101c-0.219-0.181-0.428-0.35-0.631-0.506C8.567,16.552,8.461,16.454,8.44,16.379z"/>
	<path fill="#231815" d="M2.152,32.804c-0.166,0.239-0.316,0.247-0.45,0.021c-0.091-0.149-0.158-0.353-0.203-0.607
		c-0.038-0.188-0.011-0.33,0.079-0.426c0.202-0.219,0.383-0.429,0.54-0.632c0.068-0.126,0.113-0.281,0.135-0.461
		c-0.007-0.083-0.011-0.149-0.011-0.202C2.234,30.265,2.321,30.212,2.5,30.34c0.052,0.046,0.124,0.132,0.214,0.258
		c0.472-0.03,0.944-0.07,1.417-0.124c0.533-0.082,1.035-0.145,1.508-0.189c0-0.842-0.034-1.621-0.102-2.342
		c-0.022-0.111-0.09-0.251-0.202-0.415c-0.068-0.128-0.068-0.218,0-0.271c0.06-0.082,0.157-0.104,0.292-0.066
		c0.182,0.037,0.416,0.134,0.709,0.291c0.158,0.121,0.224,0.226,0.203,0.316c-0.031,0.059-0.057,0.135-0.078,0.225
		c-0.031,0.105-0.057,0.231-0.08,0.381c-0.074,0.586-0.146,1.194-0.212,1.824c0.359-0.053,0.697-0.091,1.011-0.113
		c0.734-0.074,1.439-0.16,2.115-0.259c0.188-0.038,0.381,0.019,0.584,0.169c0.219,0.174,0.449,0.361,0.697,0.563
		c0.143,0.112,0.225,0.236,0.248,0.371c0.008,0.113-0.078,0.178-0.258,0.191c-0.639,0.066-1.193,0.27-1.666,0.607
		c-0.105,0.083-0.18,0.098-0.225,0.045c-0.061-0.053-0.057-0.123,0.012-0.213c0.127-0.256,0.258-0.51,0.393-0.766
		c0.061-0.135,0.057-0.229-0.01-0.281c-0.055-0.045-0.113-0.07-0.182-0.078c-0.164-0.03-0.563-0.016-1.191,0.045
		c-1.006,0.066-1.867,0.152-2.587,0.258c-0.578,0.068-1.159,0.176-1.744,0.326c-0.173,0.037-0.35,0.02-0.529-0.057
		c-0.015,0.023-0.022,0.054-0.022,0.092c-0.098,0.217-0.202,0.517-0.315,0.899C2.403,32.327,2.286,32.585,2.152,32.804z
		 M5.572,34.333c0-0.157-0.023-0.285-0.067-0.383c-0.045-0.053-0.079-0.115-0.102-0.189c-0.007-0.016-0.011-0.027-0.011-0.035
		c-0.165,0-0.304,0.012-0.417,0.035c-0.12,0.021-0.214,0.018-0.281-0.014c0.008,0.145,0,0.26-0.022,0.351
		c-0.045,0.126-0.135,0.108-0.27-0.056c-0.128-0.129-0.203-0.295-0.225-0.496c-0.15-0.66-0.327-1.186-0.529-1.574
		c-0.068-0.121-0.079-0.203-0.034-0.249c0.022-0.044,0.078-0.056,0.168-0.032c0.127,0.008,0.236,0.029,0.326,0.066
		c0.51-0.021,1.012-0.066,1.508-0.135c0.39-0.053,0.797-0.146,1.225-0.281c0.166-0.053,0.326-0.045,0.484,0.022
		C7.731,31.581,8,31.754,8.135,31.88c0.098,0.143,0.08,0.289-0.057,0.439c-0.09,0.06-0.18,0.146-0.27,0.26
		c-0.105,0.112-0.236,0.348-0.393,0.707c0.111,0.092,0.168,0.166,0.168,0.226c-0.029,0.062-0.078,0.099-0.146,0.112
		c-0.621,0-1.134,0.02-1.539,0.057c0.104,0.066,0.225,0.166,0.359,0.292c0.059,0.075,0.066,0.188,0.021,0.337
		c-0.006,0.062-0.01,0.145-0.01,0.249c-0.016,0.097-0.023,0.21-0.023,0.337c0.248-0.053,0.505-0.104,0.777-0.157
		c0.238-0.075,0.482-0.071,0.73,0.011c0.209,0.083,0.348,0.177,0.416,0.281c0.014,0.067-0.012,0.131-0.08,0.192
		c-0.059,0.044-0.281,0.089-0.664,0.134c-0.418,0.03-0.82,0.068-1.203,0.113c-0.037,0.383-0.055,0.799-0.055,1.248
		c1.078-0.104,1.957-0.201,2.63-0.292c0.18-0.03,0.361-0.011,0.541,0.056c0.195,0.076,0.416,0.223,0.664,0.439
		c0.135,0.135,0.18,0.255,0.135,0.359c-0.053,0.067-0.17,0.099-0.35,0.091c-0.203-0.008-0.404-0.023-0.607-0.046
		c-1.553-0.111-2.801-0.127-3.746-0.045c-0.892,0.037-1.732,0.137-2.52,0.293c-0.158,0.037-0.327,0.023-0.506-0.045
		c-0.165-0.061-0.304-0.157-0.417-0.293c-0.142-0.164-0.112-0.25,0.09-0.258l3.556-0.215c-0.016-0.502-0.022-0.915-0.022-1.236
		c-0.24,0.008-0.462,0.021-0.664,0.045c-0.255,0.037-0.495,0.021-0.72-0.045c-0.181-0.061-0.327-0.135-0.439-0.226
		c-0.21-0.165-0.158-0.251,0.158-0.259c0.577,0.008,1.125-0.012,1.642-0.057C5.579,34.626,5.572,34.409,5.572,34.333z M3.389,28.822
		c-0.03-0.091-0.012-0.139,0.056-0.146c0.052-0.022,0.146-0.012,0.281,0.033c0.075,0.038,0.169,0.078,0.281,0.124
		c0.209,0.083,0.405,0.198,0.584,0.349c0.112,0.104,0.191,0.248,0.237,0.428c0,0.121-0.023,0.225-0.068,0.314
		c-0.09,0.09-0.18,0.12-0.27,0.09c-0.098-0.037-0.191-0.102-0.281-0.189c-0.165-0.145-0.383-0.375-0.652-0.699
		C3.446,29.012,3.389,28.91,3.389,28.822z M4.74,32.106c-0.121,0.023-0.225,0.034-0.316,0.034c0.008,0.209,0.079,0.619,0.214,1.227
		c0.6-0.045,1.283-0.136,2.048-0.27c0.045-0.016,0.09-0.016,0.135,0c0.045-0.256,0.102-0.533,0.168-0.834
		c0-0.127-0.021-0.217-0.066-0.27c-0.061-0.067-0.17-0.09-0.326-0.067C5.989,31.986,5.369,32.046,4.74,32.106z M7.844,28.079
		c0.008-0.174,0.078-0.252,0.213-0.238c0.188,0.031,0.359,0.137,0.518,0.316c0.143,0.172,0.236,0.334,0.281,0.484
		c0.023,0.089-0.045,0.152-0.203,0.19c-0.359,0.12-0.898,0.378-1.619,0.776c-0.074,0.037-0.146,0.045-0.213,0.021
		c-0.045-0.066-0.035-0.126,0.033-0.18c0.375-0.404,0.662-0.734,0.865-0.99C7.801,28.325,7.844,28.198,7.844,28.079z"/>
</g>
</svg>
