<?xml version="1.0" encoding="utf-8"?>
<!-- Generator: Adobe Illustrator 16.0.3, SVG Export Plug-In . SVG Version: 6.00 Build 0)  -->
<!DOCTYPE svg PUBLIC "-//W3C//DTD SVG 1.1//EN" "http://www.w3.org/Graphics/SVG/1.1/DTD/svg11.dtd">
<svg version="1.1" id="レイヤー_1" xmlns="http://www.w3.org/2000/svg" xmlns:xlink="http://www.w3.org/1999/xlink" x="0px"
	 y="0px" width="211.09px" height="47.844px" viewBox="0 0 211.09 47.844" enable-background="new 0 0 211.09 47.844"
	 xml:space="preserve">
<g>
	<path d="M2.24,1.617c1.036-0.049,2.714-0.124,3.626,0.024C7.717,1.938,8.58,3.048,8.58,4.75c0,1.924-1.356,3.158-3.158,3.528
		C4.164,8.524,2.585,8.426,2.24,8.401V1.617z M0.069,17.579c0.345-0.025,0.715-0.074,1.085-0.074c0.346,0,0.69,0.049,1.086,0.074
		v-8.24h0.938l1.974,2.319l2.91,3.774c0.519,0.691,1.012,1.381,1.555,2.146c0.444-0.025,0.938-0.074,1.406-0.074
		s0.912,0.049,1.431,0.074l-0.469-0.617l-1.184-1.381L5.719,9.142c2.491-0.444,5.057-1.826,5.057-4.688
		c0-2.492-1.678-3.75-5.477-3.75H0.069V17.579z"/>
	<path d="M29.108,17.579c-0.395-0.025-0.74-0.074-1.086-0.074c-0.37,0-0.74,0.049-1.085,0.074v-7.105l-6.044-9.769
		c0.443,0.024,0.912,0.074,1.381,0.074c0.42,0,0.864-0.049,1.357-0.074c0.962,1.899,3.897,7.08,4.688,8.264
		c0.838-0.987,3.996-6.957,4.711-8.264c0.296,0.024,0.642,0.074,0.963,0.074c0.296,0,0.616-0.049,0.962-0.074
		c-0.617,0.789-1.209,1.628-1.752,2.467L30.49,7.538c-0.567,0.863-1.062,1.776-1.382,2.467V17.579z"/>
	<path d="M60.957,8.969c0.172,2.713-1.703,8.092-6.908,8.092c-3.676,0-6.734-2.615-6.734-7.623s2.615-8.289,6.957-8.289
		c1.974,0,3.897,0.839,5.131,2.393C60.686,5.194,60.957,6.921,60.957,8.969z M53.975,17.875c5.502,0,9.399-3.602,9.399-9.103
		c0-5.921-4.712-8.437-9.35-8.437c-5.106,0-9.128,3.404-9.128,8.807C44.896,14.421,48.523,17.875,53.975,17.875z"/>
	<path d="M74.623,14.248c0.963,1.579,2.072,2.565,3.997,2.565c1.998,0,3.429-1.653,3.429-3.602c0-4.588-7.722-2.566-7.722-8.141
		c0-3.182,2.517-4.736,5.477-4.736c1.185,0,2.615,0.37,3.528,1.184c-0.296,0.641-0.469,1.332-0.666,2.023h-0.247
		C81.9,2.209,80.815,1.395,79.36,1.395c-1.703,0-3.108,1.135-3.108,2.886c0,4.54,7.771,2.714,7.771,7.969
		c0,3.527-2.738,5.625-6.094,5.625c-1.208,0-3.182-0.518-4.021-1.431c0.246-0.715,0.37-1.455,0.469-2.195H74.623z"/>
	<path d="M108.297,0.705c0.346,0.024,0.716,0.074,1.086,0.074c0.345,0,0.69-0.049,1.085-0.074v16.874
		c-0.395-0.025-0.74-0.074-1.085-0.074c-0.37,0-0.74,0.049-1.086,0.074V9.092c-1.751-0.049-3.453-0.124-5.181-0.124
		c-1.727,0-3.429,0.074-5.205,0.123v8.487c-0.395-0.025-0.74-0.074-1.085-0.074c-0.37,0-0.74,0.049-1.086,0.074V0.705
		c0.346,0.024,0.716,0.074,1.086,0.074c0.345,0,0.69-0.049,1.085-0.074v7.08c1.776,0.049,3.503,0.124,5.205,0.124
		c1.728,0,3.43-0.074,5.181-0.124V0.705z"/>
	<path d="M123.444,0.705c0.346,0.024,0.715,0.074,1.086,0.074c0.344,0,0.689-0.049,1.084-0.074v16.874
		c-0.395-0.025-0.74-0.074-1.084-0.074c-0.371,0-0.74,0.049-1.086,0.074V0.705z"/>
	<path d="M153.122,17.579h-0.74c-0.271-0.346-0.766-0.938-1.283-1.505L140.44,4.281h-0.246v13.297
		c-0.246-0.025-0.469-0.074-0.691-0.074c-0.246,0-0.469,0.049-0.689,0.074V0.705h0.961l11.719,12.705h0.246V0.705
		c0.223,0.024,0.445,0.074,0.691,0.074c0.223,0,0.443-0.049,0.691-0.074V17.579z"/>
	<path d="M168.565,1.691c1.061-0.024,2.096-0.099,3.107-0.099c5.525,0,7.672,1.9,7.672,7.13c0,3.009-0.887,5.748-3.553,7.08
		c-1.998,1.011-5.057,0.715-7.227,0.592V1.691z M166.394,17.504h4.811c2.615,0,5.354-0.049,7.451-1.875
		c1.85-1.628,3.107-3.848,3.107-7.277c0-2.344-0.789-4.638-2.639-6.167c-2.072-1.727-4.564-1.48-7.131-1.48h-5.6V17.504z"/>
	<path d="M208.603,8.969c0.174,2.713-1.701,8.092-6.906,8.092c-3.676,0-6.734-2.615-6.734-7.623s2.613-8.289,6.957-8.289
		c1.973,0,3.896,0.839,5.131,2.393C208.333,5.194,208.603,6.921,208.603,8.969z M201.622,17.875c5.502,0,9.398-3.602,9.398-9.103
		c0-5.921-4.711-8.437-9.35-8.437c-5.105,0-9.127,3.404-9.127,8.807C192.544,14.421,196.171,17.875,201.622,17.875z"/>
	<path d="M46.421,28.932h-0.375c-0.005-0.934-0.025-1.578-0.063-1.938c0.426,0.018,1.095,0.039,2.005,0.066
		c0.738,0.018,1.231,0.027,1.478,0.027c0.266,0,0.882-0.014,1.847-0.041c0.699-0.018,1.21-0.035,1.53-0.053
		c-0.047,0.438-0.078,1.082-0.094,1.938h-0.375l-0.047-0.561c-0.031-0.338-0.053-0.531-0.064-0.578s-0.028-0.078-0.05-0.098
		s-0.055-0.035-0.098-0.047c-0.055-0.012-0.25-0.027-0.586-0.047c-0.337-0.02-0.604-0.029-0.799-0.029h-0.716
		c-0.042,0.375-0.063,0.881-0.063,1.518v3.426c0,0.531,0.011,1.049,0.031,1.553c0.012,0.371,0.04,0.592,0.085,0.662
		c0.044,0.07,0.115,0.121,0.215,0.154c0.099,0.033,0.379,0.055,0.841,0.063v0.375c-0.7-0.021-1.226-0.031-1.577-0.031
		c-0.152,0-0.762,0.01-1.829,0.031v-0.375c0.462-0.008,0.743-0.029,0.844-0.063s0.169-0.078,0.204-0.137
		c0.05-0.078,0.081-0.268,0.093-0.568c0-0.082,0.011-0.637,0.031-1.664v-3.414c0-0.164-0.003-0.344-0.008-0.539l-0.023-0.99h-0.873
		c-0.504,0-0.904,0.02-1.201,0.059c-0.094,0.012-0.154,0.037-0.182,0.076c-0.043,0.064-0.082,0.277-0.117,0.635L46.421,28.932z"/>
	<path d="M53.165,35.322v-0.328l0.558-0.006c0.087-0.004,0.153-0.02,0.199-0.045c0.045-0.025,0.08-0.057,0.104-0.096
		c0.043-0.078,0.069-0.217,0.077-0.418c0.003-0.051,0.013-0.611,0.031-1.684v-3.035c0-0.654-0.011-1.328-0.031-2.025
		c-0.016-0.471-0.037-0.732-0.064-0.787c-0.02-0.039-0.051-0.066-0.094-0.082c-0.06-0.027-0.329-0.041-0.811-0.041v-0.328
		c0.884-0.111,1.497-0.25,1.842-0.418c0.051-0.023,0.09-0.035,0.117-0.035s0.049,0.008,0.064,0.025s0.023,0.043,0.023,0.074
		c0,0.027-0.004,0.066-0.012,0.117l-0.005,0.193c-0.02,0.699-0.031,1.295-0.034,1.787l-0.012,0.914v1.713
		c0.055-0.043,0.208-0.176,0.462-0.398s0.404-0.355,0.451-0.398c0.074-0.07,0.132-0.117,0.175-0.141
		c0.074-0.039,0.186-0.078,0.334-0.117c0.202-0.055,0.399-0.082,0.591-0.082c0.358,0,0.699,0.084,1.021,0.254
		c0.322,0.172,0.545,0.385,0.67,0.643s0.188,0.639,0.188,1.145v1.031l0.016,0.809c0.011,0.506,0.016,0.789,0.016,0.852
		c0.008,0.188,0.031,0.324,0.07,0.41c0.016,0.039,0.039,0.07,0.07,0.096s0.078,0.045,0.141,0.057
		c0.023,0.004,0.227,0.01,0.609,0.018v0.328c-0.438-0.031-0.757-0.047-0.957-0.047c-0.169,0-0.517,0.016-1.043,0.047
		c0.042-0.578,0.063-1.141,0.063-1.688v-1.453c0-0.451-0.033-0.777-0.1-0.977c-0.067-0.199-0.203-0.379-0.409-0.537
		c-0.205-0.158-0.479-0.236-0.819-0.236c-0.216,0-0.407,0.031-0.575,0.092c-0.169,0.063-0.323,0.156-0.465,0.281
		c-0.141,0.125-0.26,0.26-0.358,0.404c-0.047,0.07-0.078,0.156-0.094,0.256s-0.023,0.301-0.023,0.602v0.686
		c0.018,1.014,0.028,1.561,0.031,1.643c0.008,0.197,0.031,0.34,0.071,0.43c0.016,0.039,0.039,0.07,0.07,0.096
		s0.078,0.045,0.142,0.057c0.027,0.004,0.246,0.01,0.655,0.018v0.328c-0.697-0.031-1.179-0.047-1.445-0.047
		C54.443,35.275,53.94,35.291,53.165,35.322z"/>
	<path d="M61.889,30.502c0.27-0.318,0.626-0.477,1.068-0.477c0.419,0,0.754,0.145,1.004,0.434c0.251,0.291,0.376,0.746,0.376,1.363
		c0,0.053-0.002,0.125-0.006,0.219c-0.165,0.02-0.507,0.029-1.027,0.029c-0.22,0-0.62-0.01-1.204-0.029
		c-0.305-0.01-0.513-0.021-0.622-0.031C61.481,31.322,61.618,30.82,61.889,30.502z M65.149,34.313
		c-0.349,0.205-0.642,0.348-0.879,0.424c-0.236,0.078-0.475,0.117-0.714,0.117c-0.352,0-0.691-0.082-1.019-0.248
		c-0.327-0.164-0.584-0.42-0.77-0.766c-0.187-0.348-0.283-0.801-0.291-1.361h1.883c0.422,0,0.845-0.016,1.267-0.047
		c0.223-0.018,0.475-0.053,0.757-0.107c0.021-0.156,0.031-0.291,0.031-0.4c0-0.436-0.082-0.826-0.246-1.172
		c-0.164-0.344-0.423-0.617-0.775-0.816c-0.354-0.201-0.749-0.301-1.186-0.301c-0.359,0-0.693,0.064-1.001,0.193
		c-0.234,0.094-0.471,0.223-0.709,0.385s-0.414,0.307-0.527,0.432c-0.156,0.172-0.295,0.439-0.418,0.803
		c-0.123,0.361-0.185,0.768-0.185,1.219c0,0.576,0.116,1.078,0.349,1.508c0.231,0.428,0.557,0.75,0.974,0.965
		c0.418,0.217,0.884,0.324,1.399,0.324c0.261,0,0.51-0.029,0.746-0.086c0.235-0.057,0.445-0.125,0.629-0.209
		c0.125-0.055,0.322-0.166,0.591-0.334l0.188-0.422L65.149,34.313z"/>
	<path d="M72.796,28.508l1.464,3.533h-2.965L72.796,28.508z M69.826,35.275c0.333,0,0.83,0.016,1.492,0.047v-0.406
		c-0.363-0.004-0.617-0.021-0.762-0.053c-0.091-0.02-0.158-0.055-0.201-0.105c-0.032-0.035-0.048-0.08-0.048-0.135
		c0-0.125,0.058-0.322,0.173-0.592l0.618-1.506h3.394l0.721,1.793c0.055,0.137,0.082,0.248,0.082,0.334
		c0,0.055-0.017,0.1-0.05,0.137s-0.097,0.066-0.19,0.086s-0.359,0.033-0.797,0.041v0.406l1.889-0.047c0.243,0,0.67,0.016,1.28,0.047
		v-0.406c-0.31-0.004-0.508-0.027-0.596-0.07c-0.089-0.043-0.17-0.133-0.244-0.27c-0.133-0.242-0.403-0.838-0.81-1.791l-2.507-5.869
		h-0.375c-0.524,1.252-0.867,2.061-1.027,2.422l-1.469,3.301c-0.438,0.953-0.692,1.5-0.763,1.645
		c-0.122,0.254-0.215,0.41-0.279,0.471s-0.136,0.102-0.212,0.123s-0.269,0.035-0.578,0.039v0.406
		C69.022,35.291,69.442,35.275,69.826,35.275z"/>
	<path d="M77.995,35.322v-0.328c0.442-0.008,0.681-0.016,0.716-0.023c0.066-0.012,0.117-0.031,0.15-0.057s0.06-0.061,0.079-0.109
		c0.039-0.09,0.063-0.23,0.07-0.422c0.021-1.047,0.031-1.596,0.031-1.643v-0.699c0-0.314-0.011-0.65-0.031-1.012
		c-0.008-0.232-0.024-0.369-0.05-0.412c-0.024-0.043-0.069-0.076-0.133-0.098s-0.315-0.029-0.755-0.025v-0.328
		c0.786-0.109,1.361-0.252,1.724-0.426c0.078-0.039,0.13-0.059,0.157-0.059s0.049,0.01,0.064,0.029s0.023,0.049,0.023,0.088
		c0,0.027-0.001,0.059-0.005,0.094c-0.015,0.24-0.023,0.611-0.026,1.113c0.175-0.203,0.337-0.404,0.485-0.604
		c0.147-0.199,0.255-0.328,0.321-0.387c0.116-0.102,0.251-0.184,0.403-0.244c0.151-0.061,0.31-0.09,0.473-0.09
		c0.164,0,0.326,0.035,0.485,0.105l0.035,0.082c-0.056,0.52-0.087,0.977-0.094,1.371h-0.264c-0.09-0.189-0.194-0.326-0.313-0.414
		c-0.119-0.086-0.269-0.129-0.448-0.129c-0.301,0-0.557,0.123-0.768,0.373c-0.211,0.248-0.316,0.621-0.316,1.117v0.605
		c0,0.258,0.011,0.729,0.031,1.414c0.004,0.242,0.014,0.398,0.029,0.465s0.036,0.113,0.062,0.143s0.068,0.055,0.127,0.074
		c0.117,0.035,0.436,0.07,0.954,0.105v0.328c-0.689-0.031-1.276-0.047-1.763-0.047C78.95,35.275,78.465,35.291,77.995,35.322z"/>
	<path d="M82.735,30.744v-0.246c0.373-0.152,0.67-0.289,0.891-0.41c0-0.932,0-1.525,0-1.783c0.404-0.141,0.732-0.291,0.985-0.451
		l0.14,0.117c-0.043,0.326-0.09,1.049-0.141,2.164c0.313,0.004,0.502,0.006,0.565,0.006c0.035,0,0.237-0.006,0.605-0.016
		c0.205-0.006,0.357-0.02,0.46-0.037l0.041,0.041l-0.124,0.537c-0.247-0.004-0.475-0.006-0.683-0.006s-0.496,0.002-0.865,0.006
		l-0.031,2.387c-0.012,0.582-0.008,0.932,0.012,1.045s0.057,0.211,0.111,0.295s0.126,0.152,0.214,0.203s0.238,0.09,0.449,0.117
		c0.16,0,0.29-0.008,0.391-0.021c0.1-0.014,0.226-0.047,0.378-0.102l0.07,0.225c-0.184,0.145-0.361,0.295-0.532,0.451
		c-0.148,0.055-0.287,0.09-0.416,0.107S84.979,35.4,84.811,35.4c-0.207,0-0.371-0.023-0.494-0.07s-0.235-0.113-0.337-0.197
		s-0.187-0.189-0.254-0.318s-0.111-0.332-0.131-0.609c0.004-0.266,0.013-0.557,0.024-0.873c0.005-0.063,0.007-0.131,0.007-0.205
		v-2.43h-0.239C83.193,30.697,82.976,30.713,82.735,30.744z"/>
	<path d="M91.33,30.563c0.297-0.348,0.686-0.521,1.164-0.521c0.338,0,0.646,0.092,0.927,0.279c0.28,0.186,0.511,0.504,0.691,0.955
		c0.181,0.453,0.271,0.99,0.271,1.611c0,0.748-0.151,1.301-0.455,1.66c-0.304,0.361-0.681,0.541-1.132,0.541
		c-0.354,0-0.682-0.115-0.982-0.344c-0.302-0.229-0.532-0.592-0.691-1.088c-0.16-0.498-0.239-0.986-0.239-1.467
		C90.884,31.453,91.032,30.912,91.33,30.563z M90.043,33.994c0.102,0.244,0.249,0.48,0.443,0.711
		c0.195,0.23,0.449,0.422,0.763,0.576c0.313,0.152,0.695,0.229,1.147,0.229c0.58,0,1.111-0.135,1.594-0.402s0.856-0.639,1.121-1.113
		c0.265-0.473,0.397-0.996,0.397-1.566c0-0.818-0.257-1.486-0.771-2.002c-0.514-0.518-1.18-0.775-1.997-0.775
		c-0.868,0-1.58,0.277-2.135,0.83c-0.555,0.555-0.832,1.27-0.832,2.146C89.774,33.111,89.863,33.568,90.043,33.994z"/>
	<path d="M96.356,30.744v-0.236c0.306-0.127,0.577-0.262,0.813-0.404V29.75c0-0.512,0.032-0.873,0.097-1.084
		c0.064-0.209,0.154-0.398,0.271-0.563c0.176-0.242,0.452-0.553,0.83-0.928c0.254-0.248,0.441-0.402,0.562-0.465
		c0.16-0.082,0.347-0.123,0.562-0.123c0.152,0,0.308,0.025,0.468,0.076l0.023,0.977l-0.134,0.053
		c-0.12-0.102-0.239-0.176-0.357-0.223s-0.257-0.07-0.416-0.07c-0.209,0-0.38,0.043-0.512,0.129s-0.228,0.211-0.288,0.371
		c-0.06,0.162-0.09,0.488-0.09,0.984v1.219h0.619c0.312,0,0.616-0.016,0.916-0.047l0.059,0.035l-0.116,0.605
		c-0.34-0.016-0.588-0.023-0.748-0.023c-0.163,0-0.406,0.008-0.729,0.023v2.098c0,0.258,0.011,0.73,0.031,1.414
		c0.004,0.242,0.014,0.396,0.029,0.463c0.015,0.066,0.035,0.113,0.061,0.143s0.067,0.055,0.125,0.074
		c0.116,0.035,0.43,0.07,0.94,0.105v0.328c-0.91-0.031-1.466-0.047-1.665-0.047c-0.18,0-0.682,0.016-1.506,0.047v-0.328l0.56-0.006
		c0.083-0.004,0.146-0.02,0.192-0.045c0.045-0.025,0.079-0.057,0.103-0.096c0.044-0.078,0.071-0.217,0.083-0.416
		c0-0.051,0.011-0.611,0.031-1.684v-2.051L96.356,30.744z"/>
	<path d="M106.892,28.508l1.464,3.533h-2.965L106.892,28.508z M103.922,35.275c0.333,0,0.83,0.016,1.492,0.047v-0.406
		c-0.363-0.004-0.617-0.021-0.762-0.053c-0.091-0.02-0.158-0.055-0.201-0.105c-0.032-0.035-0.048-0.08-0.048-0.135
		c0-0.125,0.058-0.322,0.173-0.592l0.618-1.506h3.394l0.721,1.793c0.055,0.137,0.082,0.248,0.082,0.334
		c0,0.055-0.017,0.1-0.05,0.137s-0.097,0.066-0.19,0.086s-0.359,0.033-0.797,0.041v0.406l1.888-0.047
		c0.244,0,0.67,0.016,1.281,0.047v-0.406c-0.311-0.004-0.508-0.027-0.596-0.07c-0.09-0.043-0.17-0.133-0.244-0.27
		c-0.133-0.242-0.404-0.838-0.811-1.791l-2.506-5.869h-0.375c-0.524,1.252-0.867,2.061-1.027,2.422l-1.469,3.301
		c-0.438,0.953-0.692,1.5-0.763,1.645c-0.122,0.254-0.215,0.41-0.279,0.471s-0.136,0.102-0.212,0.123s-0.269,0.035-0.578,0.039
		v0.406C103.118,35.291,103.538,35.275,103.922,35.275z"/>
	<path d="M116.903,34.656l-0.234,0.393c-0.27,0.145-0.535,0.248-0.799,0.314s-0.561,0.1-0.893,0.1c-0.818,0-1.471-0.248-1.955-0.742
		c-0.486-0.496-0.729-1.176-0.729-2.041c0-0.457,0.064-0.855,0.195-1.193s0.291-0.6,0.482-0.783
		c0.129-0.129,0.373-0.297,0.734-0.502s0.613-0.338,0.758-0.396c0.266-0.113,0.582-0.17,0.953-0.17c0.352,0,0.666,0.037,0.947,0.109
		c0.18,0.047,0.359,0.125,0.539,0.234c-0.047,0.303-0.078,0.531-0.098,0.686c-0.02,0.156-0.045,0.438-0.074,0.846h-0.328
		c-0.023-0.377-0.047-0.613-0.07-0.707c-0.016-0.057-0.051-0.109-0.105-0.156c-0.141-0.109-0.32-0.203-0.541-0.283
		s-0.461-0.119-0.723-0.119c-0.328,0-0.611,0.066-0.852,0.201c-0.238,0.135-0.426,0.35-0.559,0.643
		c-0.131,0.293-0.197,0.656-0.197,1.088c0,0.531,0.092,1.012,0.279,1.441s0.441,0.742,0.762,0.939s0.68,0.297,1.076,0.297
		c0.197,0,0.391-0.025,0.58-0.072c0.189-0.049,0.432-0.143,0.727-0.277L116.903,34.656z"/>
	<path d="M124.058,34.994v0.328c-0.51-0.031-0.896-0.047-1.156-0.047c-0.289,0-0.58,0.016-0.875,0.047
		c0.02-0.316,0.035-0.674,0.047-1.068c-0.234,0.188-0.512,0.443-0.836,0.77c-0.074,0.076-0.145,0.131-0.215,0.168
		c-0.168,0.096-0.334,0.166-0.502,0.207c-0.168,0.043-0.367,0.064-0.6,0.064c-0.316,0-0.578-0.043-0.791-0.131
		c-0.211-0.086-0.393-0.217-0.545-0.395c-0.115-0.129-0.203-0.297-0.264-0.504c-0.063-0.205-0.092-0.455-0.092-0.746
		c0-0.137,0.004-0.266,0.016-0.389c0.01-0.121,0.016-0.24,0.016-0.359v-1.008c0-0.102-0.012-0.359-0.031-0.771
		c-0.008-0.26-0.025-0.428-0.053-0.508c-0.016-0.039-0.041-0.07-0.074-0.094c-0.059-0.039-0.162-0.059-0.309-0.059
		c-0.211,0-0.379-0.002-0.502-0.006v-0.328c0.83-0.094,1.434-0.242,1.809-0.447c0.063-0.035,0.109-0.053,0.145-0.053
		c0.027,0,0.049,0.01,0.066,0.029s0.027,0.049,0.027,0.088c0,0.031-0.002,0.07-0.006,0.117c-0.012,0.125-0.021,0.367-0.031,0.723
		c-0.018,0.654-0.025,1.092-0.025,1.316v1.145c0,0.477,0.031,0.813,0.096,1.008c0.064,0.193,0.188,0.348,0.373,0.463
		c0.184,0.115,0.412,0.174,0.686,0.174c0.186,0,0.371-0.033,0.557-0.098c0.184-0.066,0.35-0.16,0.498-0.283
		c0.109-0.088,0.221-0.209,0.334-0.361c0.086-0.113,0.143-0.199,0.17-0.26s0.045-0.15,0.053-0.268
		c0.02-0.346,0.031-0.689,0.031-1.031v-0.496c0-0.102-0.012-0.359-0.031-0.771c-0.008-0.26-0.025-0.428-0.053-0.508
		c-0.016-0.039-0.041-0.07-0.074-0.094c-0.059-0.039-0.162-0.059-0.309-0.059c-0.211,0-0.379-0.002-0.502-0.006v-0.328
		c0.836-0.094,1.445-0.242,1.822-0.447c0.063-0.035,0.111-0.053,0.146-0.053c0.027,0,0.049,0.01,0.066,0.029
		s0.027,0.049,0.027,0.088c0,0.031-0.002,0.07-0.006,0.117c-0.01,0.125-0.023,0.375-0.037,0.746
		c-0.021,0.639-0.031,1.07-0.031,1.293v0.805l0.012,0.816c0.016,0.475,0.025,0.752,0.031,0.834c0.004,0.195,0.025,0.34,0.063,0.43
		c0.02,0.035,0.045,0.064,0.076,0.09s0.076,0.047,0.139,0.063C123.437,34.98,123.651,34.986,124.058,34.994z"/>
	<path d="M126.591,31.85c0-0.211,0.012-0.352,0.035-0.426c0.059-0.152,0.176-0.311,0.352-0.479s0.373-0.295,0.59-0.383
		s0.438-0.131,0.66-0.131c0.301,0,0.602,0.078,0.898,0.236s0.527,0.393,0.689,0.705c0.162,0.314,0.244,0.684,0.244,1.107
		c0,0.439-0.086,0.846-0.256,1.219s-0.4,0.648-0.693,0.826c-0.291,0.178-0.615,0.266-0.971,0.266c-0.293,0-0.572-0.061-0.84-0.182
		c-0.266-0.121-0.502-0.285-0.709-0.496V31.85z M125.323,30.512c0.063,0.012,0.113,0.033,0.154,0.066
		c0.039,0.033,0.068,0.082,0.086,0.146s0.031,0.453,0.043,1.164c0.01,0.711,0.016,1.406,0.016,2.082v2.08
		c-0.018,1.066-0.029,1.627-0.031,1.678c-0.012,0.199-0.039,0.338-0.084,0.416c-0.023,0.039-0.057,0.07-0.102,0.096
		c-0.047,0.025-0.109,0.041-0.193,0.045l-0.559,0.006v0.328c0.236-0.031,0.576-0.047,1.021-0.047c0.801,0,1.445,0.016,1.932,0.047
		v-0.328c-0.43-0.008-0.662-0.016-0.697-0.023c-0.063-0.012-0.111-0.031-0.145-0.057s-0.057-0.059-0.072-0.102
		c-0.043-0.09-0.066-0.23-0.07-0.422c-0.004-0.102-0.014-0.646-0.031-1.635v-0.932c0.234,0.113,0.445,0.193,0.631,0.24
		s0.377,0.07,0.572,0.07c0.25,0,0.488-0.035,0.711-0.105c0.102-0.031,0.283-0.115,0.543-0.25c0.26-0.133,0.504-0.293,0.734-0.477
		c0.229-0.184,0.371-0.301,0.426-0.352c0.094-0.082,0.193-0.203,0.301-0.365c0.109-0.162,0.207-0.34,0.295-0.533
		s0.16-0.398,0.217-0.617s0.086-0.451,0.086-0.697c0-0.406-0.082-0.787-0.244-1.145s-0.424-0.648-0.783-0.873
		c-0.361-0.225-0.789-0.336-1.287-0.336c-0.426,0-0.748,0.053-0.963,0.158c-0.164,0.078-0.578,0.424-1.238,1.035v-0.617
		c0-0.094,0.006-0.195,0.02-0.309c0.008-0.074,0.012-0.121,0.012-0.141c0-0.045-0.01-0.078-0.027-0.098s-0.039-0.029-0.066-0.029
		s-0.064,0.012-0.107,0.035c-0.141,0.074-0.35,0.15-0.627,0.23s-0.531,0.137-0.758,0.168c-0.227,0.033-0.375,0.051-0.445,0.051
		v0.328L125.323,30.512z"/>
	<path d="M138.507,34.994v0.328c-0.51-0.031-0.896-0.047-1.156-0.047c-0.289,0-0.58,0.016-0.875,0.047
		c0.02-0.316,0.035-0.674,0.047-1.068c-0.234,0.188-0.512,0.443-0.836,0.77c-0.074,0.076-0.145,0.131-0.215,0.168
		c-0.168,0.096-0.334,0.166-0.502,0.207c-0.168,0.043-0.367,0.064-0.6,0.064c-0.316,0-0.578-0.043-0.791-0.131
		c-0.211-0.086-0.393-0.217-0.545-0.395c-0.115-0.129-0.203-0.297-0.264-0.504c-0.063-0.205-0.092-0.455-0.092-0.746
		c0-0.137,0.004-0.266,0.016-0.389c0.01-0.121,0.016-0.24,0.016-0.359v-1.008c0-0.102-0.012-0.359-0.031-0.771
		c-0.008-0.26-0.025-0.428-0.053-0.508c-0.016-0.039-0.041-0.07-0.074-0.094c-0.059-0.039-0.162-0.059-0.309-0.059
		c-0.211,0-0.379-0.002-0.502-0.006v-0.328c0.83-0.094,1.434-0.242,1.809-0.447c0.063-0.035,0.109-0.053,0.145-0.053
		c0.027,0,0.049,0.01,0.066,0.029s0.027,0.049,0.027,0.088c0,0.031-0.002,0.07-0.006,0.117c-0.012,0.125-0.021,0.367-0.031,0.723
		c-0.018,0.654-0.025,1.092-0.025,1.316v1.145c0,0.477,0.031,0.813,0.096,1.008c0.064,0.193,0.188,0.348,0.373,0.463
		c0.184,0.115,0.412,0.174,0.686,0.174c0.186,0,0.371-0.033,0.557-0.098c0.184-0.066,0.35-0.16,0.498-0.283
		c0.109-0.088,0.221-0.209,0.334-0.361c0.086-0.113,0.143-0.199,0.17-0.26s0.045-0.15,0.053-0.268
		c0.02-0.346,0.031-0.689,0.031-1.031v-0.496c0-0.102-0.012-0.359-0.031-0.771c-0.008-0.26-0.025-0.428-0.053-0.508
		c-0.016-0.039-0.041-0.07-0.074-0.094c-0.059-0.039-0.162-0.059-0.309-0.059c-0.211,0-0.379-0.002-0.502-0.006v-0.328
		c0.836-0.094,1.445-0.242,1.822-0.447c0.063-0.035,0.111-0.053,0.146-0.053c0.027,0,0.049,0.01,0.066,0.029
		s0.027,0.049,0.027,0.088c0,0.031-0.002,0.07-0.006,0.117c-0.01,0.125-0.023,0.375-0.037,0.746
		c-0.021,0.639-0.031,1.07-0.031,1.293v0.805l0.012,0.816c0.016,0.475,0.025,0.752,0.031,0.834c0.004,0.195,0.025,0.34,0.063,0.43
		c0.02,0.035,0.045,0.064,0.076,0.09s0.076,0.047,0.139,0.063C137.886,34.98,138.101,34.986,138.507,34.994z"/>
	<path d="M138.978,35.322v-0.328l0.559-0.006c0.084-0.004,0.146-0.02,0.193-0.045c0.045-0.025,0.078-0.057,0.102-0.096
		c0.045-0.08,0.072-0.219,0.084-0.418c0-0.051,0.01-0.613,0.031-1.689v-0.699c0-0.314-0.012-0.65-0.031-1.012
		c-0.012-0.232-0.031-0.369-0.055-0.412c-0.025-0.043-0.07-0.076-0.131-0.098c-0.063-0.021-0.313-0.029-0.752-0.025v-0.328
		c0.785-0.109,1.361-0.252,1.723-0.426c0.078-0.039,0.131-0.059,0.158-0.059s0.049,0.01,0.064,0.029s0.023,0.049,0.023,0.088
		c0,0.027-0.002,0.059-0.006,0.094c-0.008,0.143-0.018,0.439-0.025,0.896l1.088-0.932c0.32-0.117,0.623-0.176,0.908-0.176
		c0.316,0,0.615,0.064,0.898,0.193s0.496,0.291,0.639,0.486s0.238,0.441,0.285,0.738c0.027,0.176,0.041,0.668,0.041,1.473v1.037
		c0,0.51,0.01,0.855,0.031,1.039c0.02,0.117,0.051,0.197,0.092,0.242s0.105,0.074,0.193,0.086l0.637,0.018v0.328
		c-0.381-0.031-0.697-0.047-0.949-0.047c-0.217,0-0.578,0.016-1.082,0.047c0.041-0.965,0.063-1.574,0.063-1.828V32.51
		c0-0.611-0.023-1.014-0.07-1.205c-0.066-0.262-0.217-0.473-0.451-0.633s-0.518-0.24-0.848-0.24c-0.293,0-0.561,0.068-0.803,0.207
		s-0.414,0.299-0.518,0.48s-0.154,0.488-0.154,0.918v0.711c0.02,1.016,0.031,1.564,0.031,1.646c0.008,0.197,0.031,0.34,0.07,0.43
		c0.016,0.035,0.039,0.064,0.07,0.09s0.08,0.047,0.146,0.063c0.023,0.004,0.238,0.01,0.646,0.018v0.328
		c-0.477-0.031-0.908-0.047-1.297-0.047C140.255,35.275,139.72,35.291,138.978,35.322z"/>
	<path d="M150.899,34.656l-0.234,0.393c-0.27,0.145-0.535,0.248-0.799,0.314s-0.561,0.1-0.893,0.1c-0.818,0-1.471-0.248-1.955-0.742
		c-0.486-0.496-0.729-1.176-0.729-2.041c0-0.457,0.064-0.855,0.195-1.193s0.291-0.6,0.482-0.783
		c0.129-0.129,0.373-0.297,0.734-0.502s0.613-0.338,0.758-0.396c0.266-0.113,0.582-0.17,0.953-0.17c0.352,0,0.666,0.037,0.947,0.109
		c0.18,0.047,0.359,0.125,0.539,0.234c-0.047,0.303-0.078,0.531-0.098,0.686c-0.02,0.156-0.045,0.438-0.074,0.846h-0.328
		c-0.023-0.377-0.047-0.613-0.07-0.707c-0.016-0.057-0.051-0.109-0.105-0.156c-0.141-0.109-0.32-0.203-0.541-0.283
		s-0.461-0.119-0.723-0.119c-0.328,0-0.611,0.066-0.852,0.201c-0.238,0.135-0.426,0.35-0.559,0.643
		c-0.131,0.293-0.197,0.656-0.197,1.088c0,0.531,0.092,1.012,0.279,1.441s0.441,0.742,0.762,0.939s0.68,0.297,1.076,0.297
		c0.197,0,0.391-0.025,0.58-0.072c0.189-0.049,0.432-0.143,0.727-0.277L150.899,34.656z"/>
	<path d="M151.413,30.744v-0.246c0.373-0.152,0.67-0.289,0.891-0.41c0-0.932,0-1.525,0-1.783c0.404-0.141,0.732-0.291,0.984-0.451
		l0.141,0.117c-0.043,0.326-0.09,1.049-0.141,2.164c0.313,0.004,0.502,0.006,0.564,0.006c0.035,0,0.238-0.006,0.605-0.016
		c0.205-0.006,0.357-0.02,0.461-0.037l0.041,0.041l-0.125,0.537c-0.246-0.004-0.475-0.006-0.682-0.006
		c-0.209,0-0.496,0.002-0.865,0.006l-0.031,2.387c-0.012,0.582-0.008,0.932,0.012,1.045s0.057,0.211,0.111,0.295
		s0.125,0.152,0.213,0.203s0.238,0.09,0.449,0.117c0.16,0,0.291-0.008,0.391-0.021s0.227-0.047,0.379-0.102l0.07,0.225
		c-0.184,0.145-0.361,0.295-0.533,0.451c-0.148,0.055-0.287,0.09-0.416,0.107s-0.277,0.027-0.445,0.027
		c-0.207,0-0.371-0.023-0.494-0.07s-0.234-0.113-0.336-0.197s-0.188-0.189-0.254-0.318c-0.068-0.129-0.111-0.332-0.131-0.609
		c0.004-0.266,0.012-0.557,0.023-0.873c0.006-0.063,0.008-0.131,0.008-0.205v-2.43h-0.24
		C151.87,30.697,151.653,30.713,151.413,30.744z"/>
	<path d="M161.968,34.994v0.328c-0.51-0.031-0.896-0.047-1.156-0.047c-0.289,0-0.58,0.016-0.875,0.047
		c0.02-0.316,0.035-0.674,0.047-1.068c-0.234,0.188-0.512,0.443-0.836,0.77c-0.074,0.076-0.145,0.131-0.215,0.168
		c-0.168,0.096-0.334,0.166-0.502,0.207c-0.168,0.043-0.367,0.064-0.6,0.064c-0.316,0-0.578-0.043-0.791-0.131
		c-0.211-0.086-0.393-0.217-0.545-0.395c-0.115-0.129-0.203-0.297-0.264-0.504c-0.063-0.205-0.092-0.455-0.092-0.746
		c0-0.137,0.004-0.266,0.016-0.389c0.01-0.121,0.016-0.24,0.016-0.359v-1.008c0-0.102-0.012-0.359-0.031-0.771
		c-0.008-0.26-0.025-0.428-0.053-0.508c-0.016-0.039-0.041-0.07-0.074-0.094c-0.059-0.039-0.162-0.059-0.309-0.059
		c-0.211,0-0.379-0.002-0.502-0.006v-0.328c0.83-0.094,1.434-0.242,1.809-0.447c0.063-0.035,0.109-0.053,0.145-0.053
		c0.027,0,0.049,0.01,0.066,0.029s0.027,0.049,0.027,0.088c0,0.031-0.002,0.07-0.006,0.117c-0.012,0.125-0.021,0.367-0.031,0.723
		c-0.018,0.654-0.025,1.092-0.025,1.316v1.145c0,0.477,0.031,0.813,0.096,1.008c0.064,0.193,0.188,0.348,0.373,0.463
		c0.184,0.115,0.412,0.174,0.686,0.174c0.186,0,0.371-0.033,0.557-0.098c0.184-0.066,0.35-0.16,0.498-0.283
		c0.109-0.088,0.221-0.209,0.334-0.361c0.086-0.113,0.143-0.199,0.17-0.26s0.045-0.15,0.053-0.268
		c0.02-0.346,0.031-0.689,0.031-1.031v-0.496c0-0.102-0.012-0.359-0.031-0.771c-0.008-0.26-0.025-0.428-0.053-0.508
		c-0.016-0.039-0.041-0.07-0.074-0.094c-0.059-0.039-0.162-0.059-0.309-0.059c-0.211,0-0.379-0.002-0.502-0.006v-0.328
		c0.836-0.094,1.445-0.242,1.822-0.447c0.063-0.035,0.111-0.053,0.146-0.053c0.027,0,0.049,0.01,0.066,0.029
		s0.027,0.049,0.027,0.088c0,0.031-0.002,0.07-0.006,0.117c-0.01,0.125-0.023,0.375-0.037,0.746
		c-0.021,0.639-0.031,1.07-0.031,1.293v0.805l0.012,0.816c0.016,0.475,0.025,0.752,0.031,0.834c0.004,0.195,0.025,0.34,0.063,0.43
		c0.02,0.035,0.045,0.064,0.076,0.09s0.076,0.047,0.139,0.063C161.347,34.98,161.562,34.986,161.968,34.994z"/>
	<path d="M162.563,35.322v-0.328c0.441-0.008,0.68-0.016,0.715-0.023c0.066-0.012,0.117-0.031,0.15-0.057s0.061-0.061,0.08-0.109
		c0.039-0.09,0.063-0.23,0.07-0.422c0.02-1.047,0.031-1.596,0.031-1.643v-0.699c0-0.314-0.012-0.65-0.031-1.012
		c-0.008-0.232-0.025-0.369-0.051-0.412c-0.023-0.043-0.068-0.076-0.133-0.098c-0.063-0.021-0.314-0.029-0.754-0.025v-0.328
		c0.785-0.109,1.361-0.252,1.723-0.426c0.078-0.039,0.131-0.059,0.158-0.059s0.049,0.01,0.064,0.029s0.023,0.049,0.023,0.088
		c0,0.027-0.002,0.059-0.006,0.094c-0.014,0.24-0.023,0.611-0.025,1.113c0.174-0.203,0.336-0.404,0.484-0.604
		s0.256-0.328,0.322-0.387c0.115-0.102,0.25-0.184,0.402-0.244s0.311-0.09,0.473-0.09c0.164,0,0.326,0.035,0.486,0.105l0.035,0.082
		c-0.057,0.52-0.088,0.977-0.094,1.371h-0.264c-0.09-0.189-0.195-0.326-0.314-0.414c-0.119-0.086-0.268-0.129-0.447-0.129
		c-0.301,0-0.557,0.123-0.768,0.373c-0.211,0.248-0.316,0.621-0.316,1.117v0.605c0,0.258,0.01,0.729,0.031,1.414
		c0.004,0.242,0.014,0.398,0.029,0.465s0.035,0.113,0.061,0.143s0.068,0.055,0.127,0.074c0.117,0.035,0.436,0.07,0.955,0.105v0.328
		c-0.689-0.031-1.277-0.047-1.764-0.047C163.519,35.275,163.032,35.291,162.563,35.322z"/>
	<path d="M168.628,30.502c0.27-0.318,0.627-0.477,1.068-0.477c0.42,0,0.754,0.145,1.004,0.434c0.252,0.291,0.377,0.746,0.377,1.363
		c0,0.053-0.002,0.125-0.006,0.219c-0.166,0.02-0.508,0.029-1.027,0.029c-0.221,0-0.621-0.01-1.205-0.029
		c-0.305-0.01-0.512-0.021-0.621-0.031C168.222,31.322,168.358,30.82,168.628,30.502z M171.89,34.313
		c-0.35,0.205-0.643,0.348-0.879,0.424c-0.236,0.078-0.475,0.117-0.715,0.117c-0.352,0-0.691-0.082-1.018-0.248
		c-0.328-0.164-0.584-0.42-0.77-0.766c-0.188-0.348-0.283-0.801-0.291-1.361h1.883c0.422,0,0.844-0.016,1.266-0.047
		c0.223-0.018,0.475-0.053,0.758-0.107c0.02-0.156,0.031-0.291,0.031-0.4c0-0.436-0.082-0.826-0.246-1.172
		c-0.164-0.344-0.424-0.617-0.775-0.816c-0.354-0.201-0.75-0.301-1.186-0.301c-0.359,0-0.693,0.064-1.002,0.193
		c-0.234,0.094-0.471,0.223-0.709,0.385s-0.414,0.307-0.527,0.432c-0.156,0.172-0.295,0.439-0.418,0.803
		c-0.123,0.361-0.184,0.768-0.184,1.219c0,0.576,0.115,1.078,0.348,1.508c0.232,0.428,0.557,0.75,0.975,0.965
		c0.418,0.217,0.883,0.324,1.398,0.324c0.262,0,0.51-0.029,0.746-0.086s0.445-0.125,0.629-0.209
		c0.125-0.055,0.322-0.166,0.592-0.334l0.188-0.422L171.89,34.313z"/>
	<path d="M67.698,45.805c-0.253,0.303-0.507,0.529-0.761,0.682c-0.255,0.15-0.513,0.227-0.773,0.227
		c-0.283,0-0.505-0.082-0.664-0.244c-0.16-0.162-0.239-0.387-0.239-0.676c0-0.238,0.051-0.455,0.151-0.65
		c0.066-0.133,0.145-0.232,0.233-0.299c0.147-0.113,0.4-0.223,0.758-0.328c0.358-0.105,0.79-0.201,1.295-0.287V45.805z
		 M65.258,42.754l0.104-0.211c0.039-0.043,0.145-0.096,0.317-0.158s0.374-0.094,0.604-0.094c0.318,0,0.588,0.066,0.809,0.199
		c0.222,0.133,0.379,0.303,0.473,0.51c0.093,0.207,0.138,0.498,0.134,0.869c-0.499,0.059-1.002,0.148-1.51,0.27
		s-0.875,0.234-1.101,0.338c-0.133,0.063-0.263,0.16-0.392,0.291c-0.128,0.131-0.238,0.307-0.329,0.529
		c-0.092,0.223-0.138,0.469-0.138,0.738c0,0.416,0.132,0.752,0.394,1.004c0.264,0.25,0.63,0.377,1.102,0.377
		c0.226,0,0.412-0.039,0.561-0.115c0.147-0.076,0.619-0.414,1.413-1.016l-0.031,1.037c0.391-0.031,0.703-0.047,0.938-0.047
		c0.242,0,0.523,0.016,0.844,0.047v-0.328l-0.379-0.035c-0.124-0.008-0.206-0.023-0.245-0.047c-0.051-0.027-0.088-0.07-0.11-0.129
		c-0.031-0.082-0.047-0.219-0.047-0.406v-1.748l0.031-1.074c0-0.381-0.051-0.68-0.152-0.898c-0.148-0.314-0.374-0.555-0.679-0.723
		c-0.304-0.168-0.679-0.252-1.123-0.252c-0.301,0-0.571,0.041-0.813,0.123c-0.315,0.113-0.722,0.332-1.217,0.656
		c0.004,0.098,0.006,0.23,0.006,0.395c0,0.156-0.002,0.279-0.006,0.369l0.311,0.082C65.074,43.174,65.152,42.99,65.258,42.754z"/>
	<path d="M69.901,47.322v-0.328l0.56-0.006c0.083-0.004,0.146-0.02,0.192-0.045c0.045-0.025,0.079-0.057,0.103-0.096
		c0.044-0.08,0.071-0.219,0.083-0.418c0-0.051,0.011-0.613,0.031-1.689v-0.699c0-0.314-0.011-0.65-0.031-1.012
		c-0.012-0.232-0.03-0.369-0.055-0.412c-0.025-0.043-0.069-0.076-0.131-0.098s-0.313-0.029-0.752-0.025v-0.328
		c0.786-0.109,1.361-0.252,1.724-0.426c0.078-0.039,0.13-0.059,0.157-0.059s0.049,0.01,0.064,0.029s0.023,0.049,0.023,0.088
		c0,0.027-0.001,0.059-0.005,0.094c-0.009,0.143-0.018,0.439-0.026,0.896l1.089-0.932c0.32-0.117,0.623-0.176,0.908-0.176
		c0.316,0,0.615,0.064,0.898,0.193s0.496,0.291,0.639,0.486s0.237,0.441,0.284,0.738c0.027,0.176,0.041,0.668,0.041,1.473v1.037
		c0,0.51,0.011,0.855,0.031,1.039c0.02,0.117,0.051,0.197,0.092,0.242c0.042,0.045,0.106,0.074,0.193,0.086l0.637,0.018v0.328
		c-0.38-0.031-0.696-0.047-0.948-0.047c-0.218,0-0.578,0.016-1.083,0.047c0.042-0.965,0.063-1.574,0.063-1.828V44.51
		c0-0.611-0.023-1.014-0.07-1.205c-0.066-0.262-0.217-0.473-0.45-0.633c-0.234-0.16-0.518-0.24-0.849-0.24
		c-0.293,0-0.56,0.068-0.802,0.207s-0.414,0.299-0.518,0.48s-0.155,0.488-0.155,0.918v0.711c0.021,1.016,0.031,1.564,0.031,1.646
		c0.008,0.197,0.031,0.34,0.07,0.43c0.016,0.035,0.039,0.064,0.07,0.09s0.081,0.047,0.147,0.063c0.023,0.004,0.238,0.01,0.646,0.018
		v0.328c-0.478-0.031-0.909-0.047-1.297-0.047C71.18,47.275,70.645,47.291,69.901,47.322z"/>
	<path d="M81.667,44.053c0,0.674-0.016,1.098-0.047,1.27c-0.043,0.256-0.144,0.49-0.3,0.701c-0.156,0.209-0.338,0.369-0.544,0.479
		c-0.207,0.109-0.44,0.164-0.702,0.164c-0.499,0-0.926-0.201-1.281-0.602c-0.355-0.402-0.532-0.959-0.532-1.672
		c0-0.463,0.071-0.861,0.214-1.191c0.143-0.332,0.348-0.58,0.617-0.742c0.27-0.164,0.563-0.246,0.884-0.246
		c0.28,0,0.566,0.066,0.857,0.201c0.29,0.135,0.568,0.348,0.834,0.641V44.053z M81.509,39.412c0.043,0.02,0.072,0.051,0.088,0.094
		c0.047,0.119,0.07,0.449,0.07,0.996v1.549c-0.223-0.125-0.452-0.219-0.688-0.279s-0.478-0.09-0.724-0.09
		c-0.273,0-0.526,0.049-0.759,0.148s-0.536,0.262-0.911,0.484s-0.615,0.389-0.721,0.498c-0.188,0.191-0.343,0.461-0.466,0.811
		s-0.185,0.719-0.185,1.109c0,0.52,0.101,0.988,0.302,1.404s0.487,0.732,0.858,0.951s0.777,0.328,1.219,0.328
		c0.238,0,0.514-0.039,0.826-0.117c0.148-0.145,0.354-0.33,0.618-0.557s0.474-0.396,0.63-0.51c-0.009,0.457-0.019,0.82-0.031,1.09
		c0.521-0.031,0.866-0.047,1.035-0.047c0.196,0,0.533,0.016,1.012,0.047v-0.328c-0.405-0.035-0.649-0.07-0.731-0.105
		s-0.14-0.082-0.175-0.139s-0.06-0.229-0.073-0.52s-0.021-0.637-0.021-1.035v-3.666l0.02-0.938c0.016-0.947,0.03-1.588,0.043-1.92
		l-0.076-0.053c-0.284,0.094-0.576,0.174-0.874,0.238c-0.299,0.064-0.664,0.121-1.097,0.168v0.328
		C81.16,39.357,81.43,39.377,81.509,39.412z"/>
	<path d="M87.278,39.4v-0.406c0.407,0.031,0.798,0.047,1.171,0.047c0.376,0,0.737-0.016,1.083-0.047
		c0.344,0.781,0.659,1.467,0.944,2.057l2.224,4.594l2.004-4.219c0.546-1.139,0.911-1.949,1.095-2.432
		c0.415,0.031,0.765,0.047,1.051,0.047c0.262,0,0.686-0.016,1.272-0.047V39.4c-0.464,0.008-0.746,0.027-0.845,0.061
		c-0.1,0.033-0.169,0.08-0.208,0.137c-0.051,0.078-0.08,0.268-0.088,0.566c-0.005,0.078-0.015,0.631-0.031,1.658v2.703
		c0,0.529,0.011,1.045,0.031,1.547c0.012,0.369,0.04,0.588,0.085,0.658c0.044,0.07,0.115,0.123,0.215,0.154
		c0.099,0.033,0.379,0.055,0.841,0.063v0.375c-0.79-0.031-1.349-0.047-1.673-0.047c-0.262,0-0.841,0.016-1.735,0.047v-0.375
		c0.465-0.008,0.748-0.029,0.85-0.063s0.17-0.078,0.205-0.137c0.051-0.078,0.08-0.268,0.088-0.568
		c0.004-0.082,0.015-0.637,0.031-1.666v-4.301l-2.018,4.23c-0.315,0.66-0.563,1.191-0.742,1.594
		c-0.129,0.293-0.323,0.758-0.585,1.395h-0.229c-0.051-0.148-0.098-0.268-0.141-0.357l-0.397-0.848l-2.795-5.82v4.107
		c0,0.533,0.016,1.051,0.047,1.555c0.012,0.371,0.04,0.592,0.085,0.662s0.117,0.121,0.217,0.154s0.382,0.055,0.847,0.063v0.375
		l-1.416-0.047l-1.482,0.047v-0.375c0.46-0.008,0.741-0.029,0.843-0.063c0.101-0.031,0.171-0.078,0.21-0.137
		c0.047-0.078,0.076-0.266,0.088-0.566c0.005-0.08,0.016-0.633,0.031-1.656v-2.703c0-0.529-0.011-1.047-0.031-1.553
		c-0.012-0.369-0.04-0.588-0.085-0.656c-0.044-0.068-0.116-0.119-0.215-0.152S87.74,39.408,87.278,39.4z"/>
	<path d="M100.371,42.563c0.297-0.348,0.686-0.521,1.164-0.521c0.338,0,0.646,0.092,0.927,0.279c0.28,0.186,0.511,0.504,0.691,0.955
		c0.181,0.453,0.271,0.99,0.271,1.611c0,0.748-0.151,1.301-0.455,1.66c-0.304,0.361-0.681,0.541-1.132,0.541
		c-0.354,0-0.682-0.115-0.982-0.344c-0.302-0.229-0.532-0.592-0.691-1.088c-0.16-0.498-0.239-0.986-0.239-1.467
		C99.925,43.453,100.073,42.912,100.371,42.563z M99.084,45.994c0.102,0.244,0.249,0.48,0.443,0.711
		c0.195,0.23,0.449,0.422,0.763,0.576c0.313,0.152,0.695,0.229,1.147,0.229c0.58,0,1.111-0.135,1.594-0.402s0.856-0.639,1.121-1.113
		c0.265-0.473,0.397-0.996,0.397-1.566c0-0.818-0.257-1.486-0.771-2.002c-0.514-0.518-1.18-0.775-1.997-0.775
		c-0.868,0-1.58,0.277-2.135,0.83c-0.555,0.555-0.832,1.27-0.832,2.146C98.815,45.111,98.904,45.568,99.084,45.994z"/>
	<path d="M105.179,47.322v-0.328c0.187,0,0.333-0.027,0.438-0.082c0.141-0.078,0.33-0.258,0.567-0.535l1.367-1.68l-0.495-0.742
		c-0.264-0.4-0.521-0.758-0.771-1.07c-0.251-0.313-0.457-0.518-0.621-0.615c-0.062-0.035-0.136-0.053-0.221-0.053
		c-0.035,0-0.098,0.004-0.187,0.012l-0.078-0.328c0.453-0.053,0.912-0.131,1.377-0.234c0.147,0.137,0.284,0.281,0.409,0.434
		c0.213,0.277,0.476,0.656,0.785,1.137l0.436,0.689l0.36-0.471c0.283-0.365,0.682-0.926,1.197-1.68
		c0.201,0.01,0.352,0.016,0.453,0.016c0.092,0,0.236-0.006,0.436-0.016v0.328c-0.17,0.004-0.299,0.035-0.383,0.094
		c-0.178,0.121-0.471,0.434-0.875,0.938l-0.563,0.676l-0.364,0.475l0.216,0.33c0.094,0.137,0.344,0.488,0.751,1.055
		c0.406,0.566,0.693,0.939,0.861,1.119c0.084,0.09,0.156,0.146,0.215,0.17s0.174,0.035,0.346,0.035v0.328
		c-0.275-0.027-0.521-0.041-0.74-0.041c-0.23,0-0.472,0.014-0.727,0.041c-0.248-0.316-0.471-0.621-0.669-0.914l-0.884-1.336
		c-0.432,0.504-0.967,1.254-1.607,2.25c-0.157-0.027-0.329-0.041-0.518-0.041C105.506,47.281,105.336,47.295,105.179,47.322z"/>
	<path d="M112.392,39.248c-0.129,0.129-0.191,0.285-0.191,0.467c0,0.18,0.063,0.334,0.191,0.461
		c0.129,0.129,0.285,0.193,0.467,0.193c0.18,0,0.332-0.064,0.461-0.193c0.129-0.127,0.193-0.281,0.193-0.461
		c0-0.182-0.064-0.338-0.189-0.467c-0.127-0.127-0.281-0.191-0.465-0.191C112.677,39.057,112.521,39.121,112.392,39.248z
		 M112.202,42.537c0.061,0.029,0.104,0.074,0.127,0.133c0.039,0.109,0.059,0.457,0.059,1.039v1.035
		c-0.021,1.072-0.031,1.635-0.031,1.686c-0.012,0.199-0.039,0.34-0.084,0.418c-0.023,0.039-0.057,0.07-0.102,0.096
		c-0.047,0.025-0.109,0.041-0.193,0.045l-0.559,0.006v0.328c0.713-0.031,1.227-0.047,1.539-0.047c0.357,0,0.834,0.016,1.43,0.047
		v-0.328c-0.412-0.008-0.629-0.014-0.652-0.018c-0.063-0.016-0.109-0.037-0.141-0.063s-0.057-0.055-0.076-0.09
		c-0.039-0.09-0.061-0.234-0.064-0.43c-0.004-0.082-0.016-0.633-0.035-1.65v-1.07c0-0.441,0.01-1.08,0.031-1.914l-0.129-0.094
		c-0.514,0.246-1.148,0.412-1.902,0.5v0.328C111.88,42.494,112.142,42.508,112.202,42.537z"/>
	<path d="M117.073,42.783c0.293-0.215,0.625-0.32,0.996-0.32c0.316,0,0.602,0.076,0.855,0.232c0.254,0.154,0.453,0.385,0.598,0.695
		c0.145,0.309,0.217,0.691,0.217,1.148c0,0.646-0.152,1.188-0.457,1.625c-0.305,0.439-0.74,0.658-1.307,0.658
		c-0.242,0-0.471-0.041-0.688-0.123s-0.406-0.191-0.57-0.328c-0.109-0.09-0.176-0.164-0.197-0.219s-0.031-0.18-0.031-0.375v-2.199
		C116.587,43.26,116.782,42.996,117.073,42.783z M115.62,47.416l0.459-0.43c0.25,0.178,0.486,0.301,0.709,0.371
		c0.221,0.07,0.463,0.105,0.725,0.105c0.305,0,0.553-0.037,0.748-0.109s0.467-0.236,0.813-0.496l0.855-0.615
		c0.08-0.066,0.18-0.191,0.297-0.377c0.16-0.242,0.291-0.518,0.393-0.826c0.102-0.311,0.152-0.637,0.152-0.98
		c0-0.445-0.09-0.854-0.268-1.221s-0.434-0.652-0.766-0.854c-0.332-0.203-0.713-0.303-1.143-0.303c-0.275,0-0.533,0.043-0.775,0.129
		s-0.416,0.174-0.521,0.264l-0.809,0.793v-1.162l0.031-0.916c0.002-0.494,0.008-1.09,0.02-1.791l0.004-0.193
		c0.004-0.051,0.008-0.09,0.008-0.117c0-0.031-0.008-0.057-0.023-0.074s-0.037-0.025-0.064-0.025c-0.025,0-0.064,0.012-0.115,0.035
		c-0.338,0.168-0.943,0.307-1.813,0.418v0.328c0.473,0,0.738,0.014,0.797,0.041c0.041,0.016,0.072,0.043,0.092,0.082
		c0.027,0.055,0.049,0.316,0.064,0.785c0.02,0.695,0.031,1.371,0.031,2.023v2.609c0,0.148-0.01,0.646-0.029,1.494
		c-0.004,0.131-0.025,0.441-0.064,0.934L115.62,47.416z"/>
	<path d="M128.206,46.994v0.328c-0.51-0.031-0.896-0.047-1.156-0.047c-0.289,0-0.58,0.016-0.875,0.047
		c0.02-0.316,0.035-0.674,0.047-1.068c-0.234,0.188-0.512,0.443-0.836,0.77c-0.074,0.076-0.145,0.131-0.215,0.168
		c-0.168,0.096-0.334,0.166-0.502,0.207c-0.168,0.043-0.367,0.064-0.6,0.064c-0.316,0-0.578-0.043-0.791-0.131
		c-0.211-0.086-0.393-0.217-0.545-0.395c-0.115-0.129-0.203-0.297-0.264-0.504c-0.063-0.205-0.092-0.455-0.092-0.746
		c0-0.137,0.004-0.266,0.016-0.389c0.01-0.121,0.016-0.24,0.016-0.359v-1.008c0-0.102-0.012-0.359-0.031-0.771
		c-0.008-0.26-0.025-0.428-0.053-0.508c-0.016-0.039-0.041-0.07-0.074-0.094c-0.059-0.039-0.162-0.059-0.309-0.059
		c-0.211,0-0.379-0.002-0.502-0.006v-0.328c0.83-0.094,1.434-0.242,1.809-0.447c0.063-0.035,0.109-0.053,0.145-0.053
		c0.027,0,0.049,0.01,0.066,0.029s0.027,0.049,0.027,0.088c0,0.031-0.002,0.07-0.006,0.117c-0.012,0.125-0.021,0.367-0.031,0.723
		c-0.018,0.654-0.025,1.092-0.025,1.316v1.145c0,0.477,0.031,0.813,0.096,1.008c0.064,0.193,0.188,0.348,0.373,0.463
		c0.184,0.115,0.412,0.174,0.686,0.174c0.186,0,0.371-0.033,0.557-0.098c0.184-0.066,0.35-0.16,0.498-0.283
		c0.109-0.088,0.221-0.209,0.334-0.361c0.086-0.113,0.143-0.199,0.17-0.26s0.045-0.15,0.053-0.268
		c0.02-0.346,0.031-0.689,0.031-1.031v-0.496c0-0.102-0.012-0.359-0.031-0.771c-0.008-0.26-0.025-0.428-0.053-0.508
		c-0.016-0.039-0.041-0.07-0.074-0.094c-0.059-0.039-0.162-0.059-0.309-0.059c-0.211,0-0.379-0.002-0.502-0.006v-0.328
		c0.836-0.094,1.445-0.242,1.822-0.447c0.063-0.035,0.111-0.053,0.146-0.053c0.027,0,0.049,0.01,0.066,0.029
		s0.027,0.049,0.027,0.088c0,0.031-0.002,0.07-0.006,0.117c-0.01,0.125-0.023,0.375-0.037,0.746
		c-0.021,0.639-0.031,1.07-0.031,1.293v0.805l0.012,0.816c0.016,0.475,0.025,0.752,0.031,0.834c0.004,0.195,0.025,0.34,0.063,0.43
		c0.02,0.035,0.045,0.064,0.076,0.09s0.076,0.047,0.139,0.063C127.585,46.98,127.8,46.986,128.206,46.994z"/>
	<path d="M129.038,46.531c-0.012,0.16-0.035,0.324-0.068,0.494c-0.008,0.039-0.012,0.072-0.012,0.1s0.008,0.047,0.023,0.059
		c0.023,0.023,0.188,0.064,0.496,0.125c0.557,0.102,1.002,0.154,1.336,0.154c0.729,0,1.309-0.195,1.742-0.588
		c0.436-0.393,0.652-0.852,0.652-1.377c0-0.266-0.057-0.492-0.17-0.682c-0.113-0.188-0.262-0.328-0.447-0.418
		s-0.523-0.197-1.014-0.322l-0.969-0.238c-0.184-0.055-0.326-0.117-0.428-0.186c-0.102-0.066-0.182-0.156-0.242-0.266
		s-0.09-0.238-0.09-0.391c0-0.273,0.104-0.512,0.313-0.713c0.207-0.203,0.482-0.305,0.826-0.305c0.24,0,0.445,0.031,0.609,0.094
		c0.166,0.061,0.301,0.133,0.406,0.211c0.105,0.08,0.18,0.156,0.223,0.225c0.043,0.07,0.076,0.15,0.102,0.24
		c0.025,0.088,0.049,0.275,0.068,0.559h0.328c0.012-0.451,0.033-0.893,0.063-1.328c-0.203-0.098-0.467-0.18-0.789-0.246
		c-0.324-0.064-0.609-0.098-0.854-0.098c-0.41,0-0.787,0.08-1.135,0.242c-0.346,0.162-0.6,0.371-0.762,0.631
		c-0.162,0.258-0.242,0.541-0.242,0.848c0,0.211,0.037,0.406,0.113,0.584c0.076,0.18,0.178,0.328,0.307,0.443
		c0.129,0.117,0.301,0.217,0.52,0.299c0.145,0.051,0.463,0.131,0.957,0.244s0.816,0.205,0.967,0.275s0.264,0.166,0.344,0.291
		s0.121,0.27,0.121,0.432c0,0.365-0.129,0.654-0.385,0.863c-0.258,0.211-0.586,0.316-0.984,0.316c-0.244,0-0.424-0.008-0.543-0.023
		c-0.121-0.016-0.238-0.049-0.354-0.098s-0.223-0.117-0.32-0.205s-0.17-0.195-0.217-0.322s-0.08-0.258-0.1-0.391
		s-0.031-0.313-0.035-0.539h-0.328C129.06,46.035,129.05,46.369,129.038,46.531z"/>
	<path d="M133.888,42.744v-0.246c0.373-0.152,0.67-0.289,0.891-0.41c0-0.932,0-1.525,0-1.783c0.404-0.141,0.732-0.291,0.984-0.451
		l0.141,0.117c-0.043,0.326-0.09,1.049-0.141,2.164c0.313,0.004,0.502,0.006,0.564,0.006c0.035,0,0.238-0.006,0.605-0.016
		c0.205-0.006,0.357-0.02,0.461-0.037l0.041,0.041l-0.125,0.537c-0.246-0.004-0.475-0.006-0.682-0.006
		c-0.209,0-0.496,0.002-0.865,0.006l-0.031,2.387c-0.012,0.582-0.008,0.932,0.012,1.045s0.057,0.211,0.111,0.295
		s0.125,0.152,0.213,0.203s0.238,0.09,0.449,0.117c0.16,0,0.291-0.008,0.391-0.021s0.227-0.047,0.379-0.102l0.07,0.225
		c-0.184,0.145-0.361,0.295-0.533,0.451c-0.148,0.055-0.287,0.09-0.416,0.107s-0.277,0.027-0.445,0.027
		c-0.207,0-0.371-0.023-0.494-0.07s-0.234-0.113-0.336-0.197s-0.188-0.189-0.254-0.318c-0.068-0.129-0.111-0.332-0.131-0.609
		c0.004-0.266,0.012-0.557,0.023-0.873c0.006-0.063,0.008-0.131,0.008-0.205v-2.43h-0.24
		C134.345,42.697,134.128,42.713,133.888,42.744z"/>
	<path d="M138.759,39.248c-0.129,0.129-0.191,0.285-0.191,0.467c0,0.18,0.063,0.334,0.191,0.461
		c0.129,0.129,0.285,0.193,0.467,0.193c0.18,0,0.332-0.064,0.461-0.193c0.129-0.127,0.193-0.281,0.193-0.461
		c0-0.182-0.064-0.338-0.189-0.467c-0.127-0.127-0.281-0.191-0.465-0.191C139.044,39.057,138.888,39.121,138.759,39.248z
		 M138.569,42.537c0.061,0.029,0.104,0.074,0.127,0.133c0.039,0.109,0.059,0.457,0.059,1.039v1.035
		c-0.021,1.072-0.031,1.635-0.031,1.686c-0.012,0.199-0.039,0.34-0.084,0.418c-0.023,0.039-0.057,0.07-0.102,0.096
		c-0.047,0.025-0.109,0.041-0.193,0.045l-0.559,0.006v0.328c0.713-0.031,1.227-0.047,1.539-0.047c0.357,0,0.834,0.016,1.43,0.047
		v-0.328c-0.412-0.008-0.629-0.014-0.652-0.018c-0.063-0.016-0.109-0.037-0.141-0.063s-0.057-0.055-0.076-0.09
		c-0.039-0.09-0.061-0.234-0.064-0.43c-0.004-0.082-0.016-0.633-0.035-1.65v-1.07c0-0.441,0.01-1.08,0.031-1.914l-0.129-0.094
		c-0.514,0.246-1.148,0.412-1.902,0.5v0.328C138.247,42.494,138.509,42.508,138.569,42.537z"/>
	<path d="M142.974,42.563c0.297-0.348,0.686-0.521,1.164-0.521c0.338,0,0.646,0.092,0.928,0.279c0.279,0.186,0.51,0.504,0.691,0.955
		c0.18,0.453,0.271,0.99,0.271,1.611c0,0.748-0.152,1.301-0.455,1.66c-0.305,0.361-0.682,0.541-1.133,0.541
		c-0.354,0-0.682-0.115-0.982-0.344s-0.531-0.592-0.691-1.088c-0.16-0.498-0.238-0.986-0.238-1.467
		C142.528,43.453,142.677,42.912,142.974,42.563z M141.687,45.994c0.102,0.244,0.25,0.48,0.443,0.711
		c0.195,0.23,0.449,0.422,0.764,0.576c0.313,0.152,0.695,0.229,1.146,0.229c0.58,0,1.111-0.135,1.594-0.402s0.857-0.639,1.121-1.113
		c0.266-0.473,0.398-0.996,0.398-1.566c0-0.818-0.258-1.486-0.771-2.002c-0.514-0.518-1.18-0.775-1.996-0.775
		c-0.869,0-1.58,0.277-2.135,0.83c-0.555,0.555-0.832,1.27-0.832,2.146C141.419,45.111,141.507,45.568,141.687,45.994z"/>
	<path d="M147.72,47.322v-0.328l0.559-0.006c0.084-0.004,0.146-0.02,0.193-0.045c0.045-0.025,0.078-0.057,0.102-0.096
		c0.045-0.08,0.072-0.219,0.084-0.418c0-0.051,0.01-0.613,0.031-1.689v-0.699c0-0.314-0.012-0.65-0.031-1.012
		c-0.012-0.232-0.031-0.369-0.055-0.412c-0.025-0.043-0.07-0.076-0.131-0.098c-0.063-0.021-0.313-0.029-0.752-0.025v-0.328
		c0.785-0.109,1.361-0.252,1.723-0.426c0.078-0.039,0.131-0.059,0.158-0.059s0.049,0.01,0.064,0.029s0.023,0.049,0.023,0.088
		c0,0.027-0.002,0.059-0.006,0.094c-0.008,0.143-0.018,0.439-0.025,0.896l1.088-0.932c0.32-0.117,0.623-0.176,0.908-0.176
		c0.316,0,0.615,0.064,0.898,0.193s0.496,0.291,0.639,0.486s0.238,0.441,0.285,0.738c0.027,0.176,0.041,0.668,0.041,1.473v1.037
		c0,0.51,0.01,0.855,0.031,1.039c0.02,0.117,0.051,0.197,0.092,0.242s0.105,0.074,0.193,0.086l0.637,0.018v0.328
		c-0.381-0.031-0.697-0.047-0.949-0.047c-0.217,0-0.578,0.016-1.082,0.047c0.041-0.965,0.063-1.574,0.063-1.828V44.51
		c0-0.611-0.023-1.014-0.07-1.205c-0.066-0.262-0.217-0.473-0.451-0.633s-0.518-0.24-0.848-0.24c-0.293,0-0.561,0.068-0.803,0.207
		s-0.414,0.299-0.518,0.48s-0.154,0.488-0.154,0.918v0.711c0.02,1.016,0.031,1.564,0.031,1.646c0.008,0.197,0.031,0.34,0.07,0.43
		c0.016,0.035,0.039,0.064,0.07,0.09s0.08,0.047,0.146,0.063c0.023,0.004,0.238,0.01,0.646,0.018v0.328
		c-0.477-0.031-0.908-0.047-1.297-0.047C148.997,47.275,148.462,47.291,147.72,47.322z"/>
</g>
</svg>
