<?xml version="1.0" encoding="utf-8"?>
<!-- Generator: Adobe Illustrator 16.0.3, SVG Export Plug-In . SVG Version: 6.00 Build 0)  -->
<!DOCTYPE svg PUBLIC "-//W3C//DTD SVG 1.1//EN" "http://www.w3.org/Graphics/SVG/1.1/DTD/svg11.dtd">
<svg version="1.1" id="レイヤー_1" xmlns="http://www.w3.org/2000/svg" xmlns:xlink="http://www.w3.org/1999/xlink" x="0px"
	 y="0px" width="32.25px" height="32.25px" viewBox="0 0 32.25 32.25" enable-background="new 0 0 32.25 32.25"
	 xml:space="preserve">
<g>
	
		<line fill="none" stroke="#FFFFFF" stroke-width="0.5" stroke-linecap="round" stroke-linejoin="round" stroke-miterlimit="10" x1="12.238" y1="12.526" x2="8.879" y2="9.167"/>
	<path fill="none" stroke="#FFFFFF" stroke-width="0.5" stroke-linecap="round" stroke-linejoin="round" stroke-miterlimit="10" d="
		M11.404,20.845c1.623,1.623,3.924,3.473,5.816,4.69c1.895,1.218,4.959,0.901,5.75,0.337c0.787-0.563,1.869-1.6,2.953-2.682
		c0.45-0.451,0.698-1.104,0.066-1.736c-0.496-0.496-2.953-2.953-3.313-3.313c-0.361-0.36-0.767-0.316-1.038-0.046
		c-0.27,0.271-1.014,1.015-1.915,1.917c-1.33,1.33-4.735-0.181-6.021-1.466c-1.283-1.285-2.795-4.69-1.465-6.02
		c0.902-0.902,1.646-1.645,1.916-1.916c0.271-0.271,0.315-0.676-0.045-1.037c-0.359-0.361-2.818-2.817-3.314-3.313
		C10.164,5.627,9.51,5.875,9.059,6.327C7.979,7.409,6.941,8.491,6.377,9.28c-0.563,0.789-0.88,3.855,0.338,5.748
		C7.932,16.922,9.781,19.223,11.404,20.845z"/>
	
		<line fill="none" stroke="#FFFFFF" stroke-width="0.5" stroke-linecap="round" stroke-linejoin="round" stroke-miterlimit="10" x1="21.054" y1="21.342" x2="24.412" y2="24.7"/>
</g>
</svg>
