<?xml version="1.0" encoding="utf-8"?>
<!-- Generator: Adobe Illustrator 16.0.3, SVG Export Plug-In . SVG Version: 6.00 Build 0)  -->
<!DOCTYPE svg PUBLIC "-//W3C//DTD SVG 1.1//EN" "http://www.w3.org/Graphics/SVG/1.1/DTD/svg11.dtd">
<svg version="1.1" id="レイヤー_1" xmlns="http://www.w3.org/2000/svg" xmlns:xlink="http://www.w3.org/1999/xlink" x="0px"
	 y="0px" width="14.316px" height="40.316px" viewBox="0 0 14.316 40.316" enable-background="new 0 0 14.316 40.316"
	 xml:space="preserve">
<g>
	<path fill="#231815" d="M4.974,2.438c0.084,0.012,0.275,0.072,0.324,0.108c0.023,0.012,0.06,0.072,0.06,0.096
		c0,0.012,0.023,0.048,0.06,0.084c0.156,0.156,0.168,0.336,0.048,0.587C5.417,3.422,5.333,3.518,5.249,3.578
		C5.214,3.602,5.165,3.65,5.117,3.71C4.962,3.938,4.854,4.058,4.602,4.273C4.086,4.729,3.798,5.161,3.498,5.869
		C3.379,6.157,3.127,6.732,3.03,6.948c-0.035,0.096-0.119,0.3-0.18,0.468C2.599,8.147,2.335,8.879,2.047,9.599
		c-0.18,0.444-0.191,0.48-0.228,0.636c-0.012,0.048-0.06,0.168-0.096,0.24c-0.145,0.264-0.192,0.276-0.264,0.012
		c-0.013-0.072-0.013-0.084,0.012-0.132c0.012-0.036,0.06-0.156,0.084-0.264c0.096-0.348,0.239-0.779,0.336-1.031
		c0.012-0.024,0.023-0.036,0.036-0.012c0,0.012,0,0.096-0.024,0.192c-0.06,0.276-0.12,0.552-0.108,0.564
		c0.013,0.012,0.084,0,0.084-0.012c0-0.012,0.42-1.331,0.696-2.171C2.73,7.14,2.935,6.528,3.019,6.265
		C3.103,6,3.223,5.641,3.282,5.497C3.486,4.981,3.606,4.633,3.798,4.07C3.918,3.722,3.93,3.662,3.93,3.59
		c0-0.264,0.084-0.552,0.204-0.768c0.061-0.108,0.18-0.252,0.24-0.312c0.048-0.048,0.048-0.048,0.18-0.048
		c0.072,0,0.156-0.012,0.18-0.024C4.806,2.415,4.865,2.415,4.974,2.438z M5.514,3.938c0.096,0,0.252,0.024,0.359,0.06
		c0.3,0.096,0.563,0.336,0.72,0.648C6.629,4.717,6.629,4.729,6.616,4.79c-0.023,0.083-0.06,0.132-0.144,0.192
		c-0.096,0.06-0.191,0.096-0.275,0.096c-0.132,0-0.444-0.108-0.564-0.192c-0.048-0.036-0.132-0.012-0.275,0.06
		c-0.252,0.12-0.744,0.468-0.72,0.492c0.012,0.012,0.036,0,0.084,0c0.144,0,0.456,0.132,0.647,0.276
		c0.12,0.096,0.264,0.252,0.36,0.384l0.071,0.12L5.766,6.252c-0.049,0.06-0.133,0.144-0.168,0.156C5.585,6.42,5.562,6.42,5.537,6.42
		c-0.023-0.012-0.06,0-0.12,0.036C5.381,6.48,5.346,6.517,5.333,6.528C5.298,6.576,5.262,6.756,5.262,6.864
		c0,0.132,0.012,0.168,0.048,0.18c0.144,0.024,0.3,0.132,0.396,0.252l0.061,0.072L5.729,7.452c-0.097,0.18-0.265,0.36-0.42,0.468
		c-0.108,0.084-0.12,0.096-0.156,0.156c-0.036,0.072-0.072,0.192-0.06,0.251c0,0.024,0.012,0.096,0,0.156
		c-0.013,0.096,0,0.24,0.012,0.24s0.024-0.024,0.036-0.06c0.012-0.024,0.072-0.108,0.12-0.168c0.119-0.132,0.216-0.192,0.359-0.204
		h0.084l0.096,0.06c0.181,0.12,0.42,0.324,0.564,0.503C6.4,8.903,6.4,8.915,6.4,8.963c0,0.072-0.06,0.132-0.168,0.216
		C6.101,9.275,5.957,9.311,5.813,9.275C5.777,9.263,5.753,9.263,5.669,9.323c-0.18,0.12-0.288,0.204-0.288,0.228
		c0,0.012,0,0.036-0.012,0.048C5.357,9.623,5.357,9.623,5.405,9.623c0.084,0,0.252,0.036,0.36,0.072
		c0.06,0.024,0.144,0.048,0.203,0.06c0.061,0.012,0.145,0.048,0.18,0.072c0.084,0.048,0.192,0.144,0.24,0.216l0.036,0.048
		l-0.036,0.06c-0.048,0.096-0.084,0.144-0.156,0.192l-0.06,0.036H6.041c-0.072,0-0.156,0-0.168-0.012c-0.012,0-0.048,0-0.096,0.012
		c-0.036,0.012-0.096,0.024-0.156,0.024H5.525l-0.108,0.084c-0.228,0.168-0.539,0.372-0.587,0.372c-0.036,0-0.013-0.036,0.071-0.084
		c0.108-0.072,0.264-0.252,0.36-0.384c0.036-0.06,0.071-0.12,0.071-0.132c0-0.024-0.203,0.024-0.396,0.096
		c-0.156,0.06-0.264,0.108-0.396,0.204c-0.072,0.048-0.145,0.084-0.18,0.096c-0.036,0.012-0.072,0.036-0.108,0.06
		c-0.023,0.024-0.084,0.06-0.12,0.072c-0.036,0.012-0.096,0.048-0.144,0.072c-0.036,0.024-0.12,0.072-0.168,0.096
		c-0.132,0.072-0.264,0.18-0.372,0.288c-0.06,0.048-0.107,0.108-0.132,0.12c-0.048,0.024-0.3,0.264-0.42,0.408
		c-0.107,0.132-0.107,0.132-0.203,0.156c-0.12,0.036-0.265,0.06-0.301,0.048c-0.035-0.012-0.096-0.084-0.107-0.12v-0.072
		c0-0.024,0.012-0.048,0-0.048c-0.024,0-0.012-0.036,0.023-0.048c0.036-0.012,0.072-0.06,0.061-0.096
		c-0.012-0.024,0-0.06,0.023-0.06c0.024,0,0.049-0.024,0.049-0.06c0-0.024,0.023-0.036,0.048-0.036c0.012,0,0.048-0.036,0.12-0.108
		c0.228-0.252,0.503-0.516,0.791-0.708l0.084-0.06l-0.096-0.036c-0.324-0.167-0.552-0.396-0.563-0.6
		C2.814,9.791,2.898,9.611,3.055,9.431c0.036-0.036,0.072-0.084,0.084-0.108s0.036-0.048,0.048-0.06
		c0.036-0.024,0.048-0.024,0.216-0.012c0.252,0.012,0.276,0.024,0.348,0.06c0.072,0.036,0.132,0.084,0.18,0.156
		c0.036,0.048,0.036,0.06,0.013,0.072c-0.024,0.012-0.024,0.012,0,0.072c0.06,0.108,0.071,0.168,0.06,0.228
		c-0.023,0.084-0.084,0.204-0.12,0.276c-0.023,0.048-0.036,0.06-0.023,0.072c0.036,0.024,0.084,0,0.155-0.06
		c0.049-0.036,0.084-0.072,0.108-0.084s0.036-0.012,0.048-0.024c0.012-0.012-0.012-0.048-0.023-0.108
		C4.11,9.767,4.11,9.455,4.134,9.155c0.013-0.132,0.013-0.251,0.013-0.312L4.134,8.711l-0.096,0.06
		c-0.192,0.12-0.468,0.24-0.659,0.3C3.282,9.095,3.246,9.095,3.114,9.035C3.03,8.999,3.007,8.987,2.971,8.927
		C2.923,8.843,2.898,8.759,2.887,8.663c-0.012-0.096,0.012-0.168,0.084-0.24c0.048-0.048,0.084-0.144,0.252-0.456
		c0.023-0.036,0.072-0.12,0.096-0.18C3.343,7.728,3.366,7.68,3.379,7.68c0.012,0,0.023,0.012,0.023,0.036
		c0.012,0.036,0,0.024,0.036-0.036c0.024-0.036,0.048-0.072,0.06-0.084C3.511,7.584,3.559,7.5,3.606,7.404
		c0.156-0.3,0.384-0.647,0.575-0.875l0.072-0.084L4.17,6.433c-0.156-0.036-0.3-0.156-0.372-0.3L3.763,6.061l0.071-0.084
		C3.87,5.929,3.906,5.893,3.906,5.881c0-0.036,0.048-0.084,0.12-0.132C4.05,5.737,4.158,5.653,4.23,5.593
		c0.119-0.12,0.155-0.132,0.275-0.168c0.048-0.012,0.072-0.036,0.18-0.144C4.758,5.209,4.854,5.113,4.89,5.089
		c0.252-0.192,0.372-0.432,0.372-0.708V4.298l-0.061-0.06C5.13,4.166,5.13,4.166,5.262,4.082C5.31,4.046,5.369,3.998,5.394,3.974
		C5.43,3.938,5.453,3.938,5.514,3.938z M4.002,6.996c-0.191,0.192-0.264,0.3-0.323,0.42c-0.084,0.156-0.145,0.408-0.145,0.6V8.1
		l0.084-0.072c0.048-0.048,0.132-0.12,0.204-0.18C3.966,7.716,4.038,7.632,4.098,7.5c0.084-0.18,0.12-0.336,0.12-0.54
		C4.218,6.78,4.218,6.768,4.002,6.996z M9.699,1.959c0.155,0.096,0.252,0.168,0.396,0.312c0.156,0.144,0.24,0.276,0.276,0.384
		l0.023,0.072l-0.12,0.276c-0.239,0.576-0.252,0.611-0.264,0.708c-0.012,0.132,0,0.3,0.036,0.444c0.012,0.036,0.023,0.048,0.06,0.06
		c0.061,0.012,0.145-0.024,0.216-0.072c0.036-0.024,0.084-0.06,0.108-0.072c0.048-0.024,0.132-0.096,0.191-0.168
		c0.024-0.024,0.049-0.036,0.12-0.048c0.048,0,0.12-0.012,0.156-0.024c0.072-0.012,0.096-0.012,0.156,0.024
		c0.239,0.132,0.419,0.324,0.527,0.552c0.023,0.06,0.023,0.083,0.023,0.108c-0.023,0.06-0.048,0.096-0.144,0.144
		c-0.096,0.048-0.204,0.12-0.24,0.168c-0.023,0.024-0.035,0.024-0.06,0.024c-0.023,0-0.048,0-0.06,0.012
		c-0.013,0.012-0.036,0.012-0.048,0.012c-0.013,0-0.024,0.012-0.036,0.036c-0.048,0.096-0.168,0.18-0.3,0.216
		c-0.036,0.012-0.072,0.036-0.12,0.084c-0.084,0.084-0.192,0.144-0.288,0.156c-0.12,0.012-0.228,0.096-0.288,0.228l-0.023,0.06
		l0.036,0.276c0.035,0.264,0.035,0.276,0.023,0.444c-0.036,0.384,0.024,0.875,0.132,1.319c0.024,0.096,0.036,0.132,0.061,0.156
		c0.036,0.036,0.06,0.072,0.084,0.132c0.012,0.036,0.012,0.036,0.023,0.012c0.072-0.108,0.36-0.648,0.528-1.007l0.107-0.24
		l-0.012-0.048c-0.012-0.024-0.024-0.072-0.024-0.084c0-0.084,0.072-0.156,0.156-0.156c0.036,0,0.072-0.012,0.107-0.048
		c0.12-0.096,0.252-0.144,0.468-0.167c0.133-0.012,0.168-0.012,0.192,0c0.06,0.024,0.107,0.084,0.144,0.18
		c0.048,0.12,0.084,0.18,0.156,0.264c0.06,0.06,0.072,0.072,0.096,0.204c0.012,0.072,0.036,0.192,0.061,0.252
		c0.023,0.084,0.035,0.132,0.035,0.204c0,0.204,0,0.216-0.167,0.432c-0.192,0.24-0.396,0.516-0.504,0.671
		c-0.048,0.06-0.132,0.168-0.181,0.24c-0.132,0.18-0.563,0.84-0.695,1.067l-0.12,0.204l0.036,0.132
		c0.048,0.192,0.156,0.492,0.229,0.672c0.155,0.348,0.323,0.611,0.587,0.959c0.048,0.072,0.12,0.156,0.145,0.204
		c0.06,0.096,0.239,0.276,0.287,0.288c0.049,0.012,0.12-0.036,0.156-0.096c0.024-0.036,0.036-0.06,0.036-0.144
		c0-0.12,0.024-0.468,0.036-0.552v-0.06l0.023,0.024c0.061,0.072,0.108,0.216,0.156,0.479c0.024,0.084,0.024,0.096,0,0.144
		c-0.036,0.084-0.024,0.144,0.024,0.252c0.035,0.072,0.048,0.108,0.06,0.252c0.012,0.084,0.024,0.204,0.036,0.252
		c0.036,0.144,0.06,0.3,0.048,0.384l-0.012,0.072l-0.097,0.06c-0.132,0.084-0.144,0.084-0.18,0.024
		c-0.023-0.036-0.036-0.048-0.06-0.048c-0.012,0-0.048-0.036-0.168-0.18c-0.192-0.24-0.348-0.444-0.456-0.611
		c-0.048-0.072-0.12-0.156-0.144-0.192c-0.024-0.036-0.061-0.108-0.084-0.156c-0.024-0.048-0.072-0.144-0.108-0.192
		c-0.275-0.408-0.575-1.007-0.743-1.523c-0.036-0.108-0.048-0.156-0.061-0.144c-0.012,0-0.023,0.012-0.048,0.024
		c-0.023,0.012-0.023,0.036-0.035,0.024l-0.024-0.024c-0.012-0.012-0.024,0.012-0.132,0.132c-0.132,0.156-0.312,0.312-0.444,0.408
		c-0.012,0.012-0.144,0.108-0.228,0.167c-0.288,0.216-0.432,0.324-0.743,0.504c-0.168,0.096-0.313,0.192-0.324,0.204
		c-0.012,0.024-0.036,0.024-0.048,0.024c-0.036-0.012-0.168,0.06-0.336,0.168c-0.084,0.06-0.156,0.096-0.168,0.096
		s0.048-0.072,0.168-0.18c0.108-0.096,0.204-0.18,0.216-0.192c0.012-0.012,0.024-0.012,0.012-0.024
		c-0.023-0.024-0.852,0.6-1.283,0.959c-0.048,0.048-0.107,0.084-0.12,0.096c-0.023,0.024-0.012,0,0.156-0.18
		c0.168-0.18,0.552-0.648,0.863-1.032c0.216-0.264,1.392-1.823,1.392-1.847c0-0.024-0.18,0-0.252,0.036
		C9.027,9.646,8.968,9.659,8.932,9.659c-0.12,0-0.252,0.036-0.432,0.108C8.451,9.791,8.368,9.779,8.271,9.73
		c-0.12-0.06-0.228-0.204-0.275-0.36c-0.012-0.06-0.012-0.108-0.012-0.144c0-0.024,0.035-0.072,0.096-0.144
		c0.048-0.048,0.084-0.096,0.107-0.108c0.024-0.012,0.072-0.06,0.097-0.108c0.023-0.048,0.107-0.168,0.18-0.288
		c0.107-0.168,0.144-0.228,0.132-0.228C8.56,8.339,8.271,8.399,8.116,8.447c-0.013,0-0.024,0-0.036-0.012
		c-0.024-0.012-0.024-0.024,0-0.072c0.012-0.024,0.048-0.06,0.06-0.084c0.024-0.024,0.036-0.036,0.036-0.048
		c0-0.024,0.252-0.204,0.647-0.468c0.24-0.156,0.3-0.204,0.324-0.252C9.159,7.5,9.171,7.488,9.207,7.488s0.061-0.024,0.084-0.036
		l0.036-0.024l0.204,0.048C9.639,7.5,9.723,7.548,9.735,7.536c0.012-0.012-0.12-0.647-0.132-0.66
		C9.591,6.864,9.555,6.888,9.495,6.912C9.327,6.984,8.979,7.188,8.823,7.296c-0.084,0.06-0.18,0.108-0.228,0.132
		C8.439,7.5,7.984,7.896,7.696,8.195L7.564,8.339L7.552,8.436c0,0.06-0.012,0.132-0.035,0.18L7.48,8.699l0.023,0.084
		c0.013,0.048,0.036,0.168,0.048,0.24c0.024,0.108,0.036,0.156,0.097,0.276C7.72,9.455,7.78,9.551,7.888,9.695
		c0.036,0.048,0.12,0.18,0.192,0.288c0.071,0.096,0.191,0.24,0.216,0.276c0.048,0.048,0.084,0.096,0.084,0.108
		c0,0.012,0.012,0.048,0.023,0.096c0.036,0.156,0,0.156-0.252-0.096c-0.155-0.156-0.3-0.324-0.407-0.492
		C7.708,9.803,7.624,9.707,7.54,9.611c-0.072-0.084-0.168-0.192-0.204-0.24C7.301,9.323,7.265,9.287,7.252,9.299
		C7.24,9.311,7.204,9.383,7.168,9.491c-0.144,0.372-0.396,0.828-0.552,1.02c-0.096,0.108-0.155,0.204-0.216,0.336
		c-0.048,0.096-0.071,0.12-0.168,0.204c-0.239,0.204-0.407,0.324-0.743,0.492c-0.264,0.132-0.396,0.192-0.443,0.192
		c-0.024,0-0.048-0.012-0.072-0.036l-0.036-0.024l0.036-0.06c0.024-0.036,0.06-0.096,0.072-0.132
		c0.012-0.048,0.035-0.084,0.071-0.12c0.048-0.048,0.048-0.048,0.084-0.036c0.072,0.024,0.097,0.012,0.145-0.036
		c0.06-0.072,0.191-0.24,0.228-0.3c0.06-0.108,0.06-0.06,0,0.06c-0.048,0.108-0.108,0.276-0.096,0.288
		c0.012,0.012,0.071-0.024,0.144-0.072c0.444-0.264,0.804-0.636,1.092-1.115c0.168-0.288,0.275-0.563,0.359-0.947
		c0.012-0.024,0-0.048-0.06-0.12c-0.036-0.048-0.097-0.096-0.12-0.12c-0.072-0.06-0.12-0.168-0.12-0.3V8.591l0.061-0.048
		C6.868,8.52,6.977,8.447,7.061,8.375c0.084-0.072,0.144-0.12,0.156-0.12c0.012,0,0.023-0.216,0.035-0.336
		c0-0.144-0.012-0.144-0.144-0.084c-0.168,0.072-0.324,0.18-0.42,0.276c-0.107,0.12-0.228,0.168-0.359,0.18
		c-0.084,0-0.084,0-0.132-0.024C6.137,8.231,6.101,8.16,6.113,8.111C6.148,8.016,6.7,7.596,7.12,7.356l0.156-0.084V7.044
		c0-0.18-0.012-0.264-0.036-0.384C7.192,6.433,7.036,6.013,6.988,5.977C6.977,5.965,6.94,5.965,6.904,5.953
		C6.772,5.917,6.521,5.761,6.449,5.689c-0.024-0.024-0.024-0.024,0-0.06c0.012-0.024,0.048-0.06,0.048-0.072
		c0-0.024,0-0.048,0.012-0.06c0.012-0.012,0.012-0.036,0.012-0.048c0-0.036,0.061-0.06,0.229-0.084c0.203-0.036,0.396,0,0.552,0.072
		C7.444,5.509,7.54,5.593,7.648,5.773l0.035,0.072L7.648,5.917c-0.024,0.06-0.024,0.156-0.024,0.72l0.012,0.372l0.036-0.036
		C7.756,6.9,8.068,6.708,8.248,6.612c0.144-0.084,0.191-0.12,0.216-0.156c0.048-0.06,0.12-0.144,0.18-0.168
		c0.024-0.012,0.06-0.036,0.084-0.06s0.06-0.048,0.084-0.072l0.048-0.036l0.096,0.036c0.048,0.024,0.168,0.048,0.252,0.072
		s0.192,0.048,0.229,0.06C9.471,6.3,9.483,6.313,9.495,6.3c0.012-0.012,0-0.096-0.012-0.204C9.447,5.833,9.436,5.833,9.399,5.845
		c-0.013,0-0.036,0-0.061-0.012C9.327,5.821,9.315,5.821,9.315,5.809c0-0.012,0.023-0.036,0.048-0.072
		c0.023-0.036,0.048-0.048,0.036-0.06c0-0.012-0.048,0.012-0.097,0.048c-0.419,0.288-0.995,0.66-1.031,0.66
		c-0.023,0-0.012-0.024,0.048-0.072c0.145-0.12,0.384-0.336,0.517-0.479c0.18-0.192,0.359-0.396,0.359-0.408
		c0-0.024-0.012-0.024-0.18,0.012c-0.192,0.036-0.42,0.108-0.612,0.18C8.26,5.665,8.092,5.713,7.924,5.761
		c-0.036,0.012-0.06,0.024-0.06,0.012c0-0.012,0.023-0.036,0.06-0.06c0.048-0.048,0.048-0.06,0.036-0.06
		c-0.012-0.012-0.024,0-0.024-0.012c0-0.012,0.084-0.048,0.192-0.096c0.396-0.168,0.995-0.492,1.199-0.636l0.024-0.024L9.327,4.682
		C9.255,4.214,9.195,3.65,9.159,3.17C9.147,2.99,9.136,2.954,9.111,2.906c-0.048-0.096-0.12-0.252-0.144-0.348L8.943,2.487
		l0.072-0.084c0.036-0.048,0.096-0.132,0.132-0.192c0.06-0.12,0.12-0.18,0.18-0.192c0.024,0,0.036-0.012,0.048-0.036
		c0.024-0.048,0.072-0.072,0.108-0.084C9.543,1.887,9.591,1.899,9.699,1.959z M8.26,7.116H8.235c-0.107,0-0.348,0.072-0.479,0.156
		C7.708,7.296,7.696,7.32,7.66,7.392C7.576,7.584,7.517,7.788,7.517,7.956V8.04l0.06-0.036c0.084-0.06,0.216-0.192,0.275-0.276
		c0.036-0.036,0.097-0.12,0.133-0.18c0.071-0.096,0.167-0.252,0.239-0.372L8.26,7.116z M11.882,2.283
		c0.048,0.048,0.072,0.084,0.12,0.18c0.084,0.168,0.096,0.228,0.096,0.42s-0.012,0.228-0.108,0.324
		c-0.083,0.084-0.155,0.12-0.264,0.108l-0.084-0.012L11.605,3.35c-0.023,0.024-0.048,0.072-0.06,0.108
		c-0.012,0.048-0.024,0.072-0.06,0.096C11.438,3.59,11.426,3.59,11.33,3.578c-0.06-0.012-0.12-0.012-0.144-0.012
		c-0.108,0.012-0.36-0.18-0.444-0.36c-0.012-0.024-0.036-0.06-0.048-0.084c-0.012-0.024-0.048-0.072-0.072-0.108
		c-0.023-0.06-0.023-0.084-0.023-0.168c0-0.096,0-0.096,0.023-0.132c0.036-0.036,0.061-0.096,0.072-0.144
		c0.012-0.024,0.06-0.096,0.144-0.191c0.181-0.204,0.276-0.264,0.408-0.3C11.462,2.031,11.702,2.115,11.882,2.283z"/>
	<path fill="#231815" d="M8.2,14.761c0.012,0,0,0,0.012,0.012s0.084,0,0.156,0c0.083,0,0.155,0,0.18,0.012
		c0.036,0,0.048,0.012,0.096,0.168c0.036,0.108,0.072,0.156,0.12,0.167c0.084,0.012,0.216,0.132,0.216,0.204
		c0,0.012-0.012,0.06-0.036,0.108c-0.012,0.036-0.024,0.096-0.024,0.204c0,0.096,0,0.144,0.024,0.192
		c0,0.024,0.012,0.072,0.012,0.204c0,0.144-0.023,0.228-0.048,0.228c-0.012,0-0.012,0-0.012,0.012c0,0.024,0.107,0.036,0.275,0.036
		c0.192,0,0.265,0,0.468-0.084c0.061-0.024,0.168-0.06,0.24-0.084s0.156-0.048,0.18-0.06c0.024-0.012,0.072-0.024,0.084-0.024
		c0.048,0,0.18,0.048,0.252,0.096c0.096,0.072,0.228,0.252,0.3,0.444c0.024,0.06,0.024,0.083,0.012,0.132
		c-0.023,0.096-0.06,0.132-0.144,0.18c-0.048,0.024-0.108,0.06-0.144,0.084c-0.061,0.048-0.061,0.048-0.108,0.036
		c-0.023-0.012-0.072,0-0.12,0c-0.084,0.012-0.071,0-0.228-0.012c-0.12-0.012-0.132-0.012-0.336,0.048
		c-0.252,0.06-0.443,0.132-0.6,0.192c-0.084,0.036-0.144,0.048-0.24,0.06c-0.144,0.012-0.348,0.06-0.539,0.108
		c-0.18,0.048-0.229,0.072-0.24,0.108c-0.023,0.036-0.023,0.036,0.096,0.336c0.036,0.084,0.072,0.192,0.084,0.24
		c0.036,0.156,0.168,0.444,0.313,0.648c0.035,0.048,0.084,0.132,0.119,0.18c0.036,0.048,0.097,0.108,0.12,0.144
		c0.072,0.072,0.18,0.18,0.216,0.18h0.036c0.012,0,0.012,0.012,0.012,0.024c0,0.012,0.013,0.036,0.024,0.024
		c0.012-0.012,0.024,0.012,0.048,0.036c0.024,0.024,0.036,0.036,0.048,0.036c0.013,0,0.036,0.012,0.048,0.024
		c0.048,0.036,0.24,0.228,0.229,0.24c-0.013,0.012-0.024,0-0.048-0.012c-0.061-0.024-0.061,0,0.012,0.06
		c0.168,0.156,0.372,0.288,0.504,0.324c0.048,0.011,0.107,0.037,0.144,0.06c0.06,0.035,0.156,0.084,0.204,0.096
		c0.012,0,0.023,0.012,0.023,0c0-0.023-0.035-0.061-0.06-0.061c-0.012,0-0.036-0.023-0.048-0.035
		c-0.024-0.023-0.024-0.036-0.012-0.023c0.035,0.012,0.323,0.107,0.335,0.107c0.024,0,0.024,0,0-0.012
		c-0.048-0.024-0.023-0.037,0.036-0.013c0.145,0.06,0.48,0.156,0.468,0.12c-0.012-0.023,0.013-0.023,0.061,0
		c0.023,0.012,0.107,0.023,0.203,0.048c0.133,0.024,0.217,0.036,0.372,0.048h0.204l0.048-0.06c0.024-0.036,0.072-0.097,0.084-0.132
		l0.024-0.061l-0.024-0.107c-0.012-0.06-0.023-0.096-0.012-0.108c0.012-0.012-0.492-0.528-0.636-0.66
		c-0.048-0.048-0.132-0.12-0.168-0.168s-0.084-0.084-0.096-0.096c-0.072-0.06-0.216-0.216-0.216-0.24
		c0-0.012-0.049-0.072-0.132-0.168l-0.133-0.156l0.12,0.12c0.408,0.372,0.936,0.827,1.367,1.175
		c0.192,0.156,0.324,0.264,0.432,0.419c0.145,0.192,0.276,0.469,0.313,0.612c0.06,0.252-0.048,0.529-0.24,0.636
		c-0.048,0.023-0.084,0.036-0.216,0.036c-0.084,0-0.216,0-0.288-0.013c-0.071-0.012-0.191-0.023-0.287-0.023
		c-0.336-0.023-0.648-0.107-0.888-0.252c-0.036-0.023-0.12-0.061-0.204-0.096c-0.768-0.336-1.571-0.876-2.123-1.428
		c-0.323-0.324-0.563-0.636-0.84-1.127c-0.048-0.084-0.048-0.084-0.287-0.252l-0.24-0.18H7.013c-0.097,0-0.145,0.012-0.216,0.036
		c-0.108,0.048-0.192,0.108-0.3,0.204c-0.048,0.048-0.192,0.168-0.324,0.276c-0.456,0.384-0.911,0.852-1.283,1.295
		c-0.312,0.372-1.331,1.236-2.015,1.692c-0.072,0.048-0.18,0.132-0.288,0.24c-0.192,0.191-0.288,0.275-0.408,0.336
		c-0.048,0.023-0.096,0.047-0.107,0.06c-0.012,0.012-0.024,0-0.048-0.024c-0.024-0.048-0.072-0.156-0.072-0.191
		c0-0.012,0-0.036-0.012-0.049c-0.012-0.012-0.024-0.023,0.012-0.047c0.048-0.037,0.096-0.121,0.084-0.145
		c0-0.012,0.024-0.048,0.06-0.108c0.168-0.251,0.828-1.091,0.864-1.091c0.012,0,0.012,0.023,0,0.036
		c-0.097,0.144-0.229,0.419-0.288,0.587c-0.036,0.108-0.108,0.349-0.096,0.36c0.012,0.013,0.371-0.252,0.6-0.42
		c0.516-0.384,0.779-0.625,1.223-1.092c0.504-0.516,1.067-1.043,1.584-1.499C6.329,18.18,6.94,17.688,7,17.652
		c0.024-0.012,0.168-0.096,0.336-0.204c0.288-0.18,0.696-0.419,0.876-0.516c0.048-0.024,0.084-0.036,0.084-0.048
		c0-0.012-0.012-0.06-0.036-0.108c-0.024-0.072-0.036-0.084-0.096-0.108c-0.048-0.024-0.084-0.024-0.168-0.024
		c-0.108,0-0.156,0.012-0.229,0.036c-0.251,0.108-0.491,0.18-0.731,0.204c-0.191,0.024-0.348,0.06-0.516,0.108
		c-0.096,0.036-0.18,0.048-0.191,0.06c-0.084,0.048-0.168,0.084-0.181,0.084c-0.012-0.012,0.013-0.024,0.036-0.036
		c0.061-0.036,0.048-0.048-0.012-0.036c-0.024,0-0.036,0.012-0.048,0.012s-0.144,0.036-0.324,0.072
		c-0.168,0.036-0.455,0.096-0.636,0.132c-0.18,0.036-0.371,0.084-0.443,0.096C4.613,17.4,4.565,17.4,4.397,17.4
		c-0.287,0-0.479,0.036-0.635,0.096C3.727,17.508,3.69,17.52,3.666,17.52c-0.023,0-0.036,0.012-0.036,0.024s0,0.012-0.012,0.012
		s-0.084,0.024-0.155,0.072C3.343,17.7,3.33,17.7,3.307,17.688c-0.012-0.012-0.024-0.024-0.024-0.036
		c0-0.012,0.036-0.072,0.097-0.144c0.432-0.552,1.007-1.079,1.643-1.499c0.684-0.456,1.631-0.875,2.507-1.115
		c0.072-0.024,0.144-0.048,0.155-0.06c0.013-0.012,0.036-0.012,0.061-0.012c0.023,0,0.06,0,0.096-0.012
		c0.036-0.012,0.072-0.012,0.096-0.012c0.024,0,0.061,0,0.097-0.012c0.036-0.012,0.084-0.012,0.107-0.012
		C8.164,14.773,8.188,14.761,8.2,14.761z M7.336,19.127c0.036,0,0.168,0.036,0.216,0.06c0.036,0.012,0.097,0.048,0.145,0.096
		c0.048,0.036,0.12,0.108,0.168,0.132c0.132,0.084,0.3,0.3,0.407,0.516l0.048,0.108l-0.035,0.108
		c-0.024,0.06-0.049,0.131-0.049,0.18c0,0.035-0.012,0.096-0.023,0.119c-0.036,0.084-0.072,0.192-0.084,0.313
		c-0.012,0.18-0.06,0.3-0.132,0.409c-0.036,0.047-0.072,0.203-0.072,0.275l0.012,0.061l0.24-0.181
		c0.456-0.348,0.492-0.384,0.348-0.372c-0.036,0-0.084,0-0.107-0.012C8.38,20.926,8.38,20.915,8.38,20.866
		c0.012-0.072,0.048-0.107,0.096-0.119c0.12-0.036,0.312-0.108,0.408-0.145c0.06-0.023,0.132-0.048,0.155-0.048
		c0.024,0,0.048-0.012,0.061-0.024c0.071-0.047,0.18-0.071,0.275-0.035c0.024,0.012,0.072,0.048,0.108,0.072
		c0.084,0.06,0.155,0.084,0.239,0.107c0.072,0.012,0.097,0.023,0.192,0.096c0.216,0.168,0.407,0.384,0.563,0.612
		c0.108,0.156,0.18,0.313,0.204,0.408c0.048,0.204,0,0.539-0.084,0.552c-0.012,0-0.061,0.013-0.108,0.024s-0.144,0.023-0.216,0.047
		c-0.155,0.049-0.216,0.049-0.3,0.013c-0.036-0.024-0.084-0.036-0.12-0.036c-0.035,0-0.084-0.012-0.132-0.012
		c-0.144-0.023-0.491,0.048-0.707,0.132c-0.24,0.096-0.54,0.108-0.804,0.024c-0.108-0.037-0.108-0.037-0.144-0.013
		c-0.072,0.048-0.061,0.06,0.275,0.276c0.731,0.455,0.983,0.611,1.199,0.731c0.072,0.036,0.18,0.108,0.276,0.192
		c0.264,0.215,0.923,0.755,1.115,0.91c0.479,0.385,0.611,0.528,0.791,0.84c0.061,0.108,0.084,0.18,0.084,0.313v0.084l-0.096,0.072
		c-0.072,0.047-0.096,0.071-0.108,0.071c-0.012,0-0.071-0.024-0.132-0.036c-0.155-0.035-0.348-0.156-0.539-0.336
		c-0.061-0.06-0.156-0.119-0.192-0.156l-0.084-0.059h-0.191c-0.168,0-0.24,0.012-0.384,0.035c-0.024,0,0.012-0.023,0.071-0.048
		c0.12-0.048,0.384-0.168,0.42-0.204c0.024-0.012,0.036-0.023,0.013-0.144l-0.024-0.12l-0.084-0.084
		c-0.191-0.191-0.72-0.695-1.031-0.959c-0.18-0.156-0.204-0.168-0.336-0.229c-0.312-0.144-0.684-0.324-0.936-0.455
		c-0.348-0.18-0.492-0.229-0.779-0.252H7.288L7.24,23.062c-0.06,0.119-0.168,0.252-0.252,0.324
		c-0.036,0.035-0.096,0.096-0.132,0.144c-0.12,0.144-0.264,0.288-0.384,0.396c-0.06,0.061-0.204,0.18-0.312,0.288
		c-0.264,0.252-0.432,0.396-0.684,0.552c-0.145,0.084-0.6,0.336-0.684,0.359c-0.036,0.012-0.084,0.036-0.097,0.049
		c-0.048,0.047-0.084,0.06-0.107,0.06c-0.024,0-0.024,0-0.012-0.013c0.012-0.012,0.012-0.023-0.024-0.023
		c-0.023,0-0.06,0.012-0.084,0.023c-0.036,0.013-0.048,0.024-0.036,0.037c0,0.012,0,0.023-0.071,0.035
		c-0.132,0.036-0.252,0.096-0.36,0.204c-0.048,0.048-0.12,0.096-0.132,0.108c-0.084,0.047-0.24-0.024-0.3-0.145
		c-0.012-0.035-0.012-0.048,0.012-0.119c0.061-0.168,0.156-0.313,0.288-0.469c0.036-0.048,0.072-0.084,0.084-0.107
		c0.012-0.024,0.036-0.049,0.048-0.061c0.024-0.023,0.024-0.023,0.036,0.049c0.024,0.096,0.072,0.155,0.144,0.215
		c0.061,0.037,0.084,0.049,0.145,0.049c0.216,0,0.468-0.072,0.684-0.192c0.071-0.048,0.071-0.048,0.071-0.084
		c0-0.024,0.013-0.048,0.084-0.108c0.349-0.275,0.732-0.671,1.056-1.066c0.204-0.252,0.252-0.348,0.276-0.54
		c0.012-0.06,0-0.071-0.013-0.084c-0.012-0.012,0-0.024,0.036-0.06c0.048-0.049,0.048-0.049,0.048-0.133v-0.084l-0.048,0.024
		c-0.12,0.048-0.288,0.132-0.407,0.216c-0.12,0.084-0.132,0.084-0.132,0.072c0-0.048,0.275-0.288,0.527-0.456
		c0.096-0.071,0.132-0.108,0.18-0.239c0.036-0.084,0.036-0.096,0.036-0.385c0-0.168,0-0.348,0.012-0.395
		c0.013-0.097,0.013-0.108-0.012-0.156c-0.048-0.12-0.06-0.204-0.06-0.408c0-0.18-0.013-0.204-0.036-0.252
		c-0.013-0.035-0.024-0.035-0.048-0.035h-0.12H6.377l-0.12,0.119c-0.216,0.205-0.372,0.432-0.504,0.696L5.682,21.61l0.048,0.191
		c0.036,0.108,0.084,0.24,0.107,0.288c0.024,0.06,0.036,0.108,0.036,0.144c0,0.024,0,0.061,0.012,0.096
		c0.013,0.037,0.013,0.108,0,0.265c-0.023,0.312-0.084,0.624-0.168,0.827c-0.012,0.049-0.023,0.096-0.023,0.192
		c0,0.084,0,0.108-0.024,0.155c-0.036,0.049-0.107,0.108-0.132,0.108c-0.012,0-0.036-0.024-0.072-0.048
		c-0.06-0.048-0.084-0.061-0.084-0.036c0,0.013-0.096,0-0.216-0.024c-0.071-0.012-0.096-0.012-0.144,0
		c-0.036,0.013-0.06,0.013-0.072,0.013c-0.012,0-0.035-0.036-0.071-0.084s-0.097-0.132-0.145-0.192
		c-0.107-0.132-0.18-0.275-0.216-0.42c-0.023-0.107-0.06-0.18-0.191-0.348l-0.061-0.084l0.013-0.072
		c0.023-0.084,0.06-0.168,0.107-0.227c0.024-0.025,0.061-0.072,0.072-0.108s0.036-0.072,0.072-0.108
		c0.035-0.035,0.144-0.156,0.239-0.264c0.108-0.107,0.264-0.276,0.36-0.359c0.096-0.084,0.18-0.168,0.18-0.18
		c0.012-0.024,0.084-0.061,0.132-0.072c0.023-0.012,0.06-0.012,0.096,0l0.061,0.023l0.071-0.107
		c0.036-0.061,0.097-0.145,0.145-0.192c0.071-0.084,0.071-0.096,0.048-0.096c-0.024,0-0.013-0.036,0.096-0.144
		c0.204-0.217,0.396-0.432,0.563-0.648c0.072-0.096,0.096-0.131,0.108-0.204c0.012-0.048,0.012-0.108,0.012-0.132
		c0-0.144,0.288-0.432,0.588-0.587C7.288,19.151,7.324,19.127,7.336,19.127z"/>
	<path fill="#231815" d="M4.194,28.771c0.036,0,0.384,0.084,0.468,0.119c0.239,0.097,0.432,0.276,0.563,0.54
		c0.036,0.072,0.036,0.097,0.036,0.192c-0.013,0.144-0.048,0.275-0.132,0.455c-0.036,0.072-0.061,0.133-0.061,0.145
		s-0.084,0.191-0.191,0.396c-0.229,0.468-0.336,0.72-0.324,0.768c0,0.013,0,0.06-0.012,0.084c-0.012,0.048-0.012,0.084,0,0.12
		c0.096,0.275,0.348,0.552,0.636,0.695c0.071,0.036,0.107,0.061,0.144,0.107c0.024,0.037,0.12,0.121,0.204,0.205
		c0.264,0.252,0.443,0.504,0.575,0.768l0.061,0.119l-0.024,0.072c-0.048,0.107-0.132,0.216-0.228,0.275
		c-0.084,0.049-0.204,0.108-0.288,0.121c-0.023,0-0.12,0.035-0.204,0.071s-0.228,0.096-0.312,0.12l-0.156,0.048l-0.035-0.036
		c-0.049-0.036-0.061-0.036-0.168,0.012c-0.061,0.024-0.12,0.036-0.156,0.036s-0.06-0.012-0.12-0.06
		c-0.06-0.061-0.096-0.072-0.264-0.12c-0.084-0.024-0.084-0.036-0.12-0.013c-0.036,0.013-0.036,0.013-0.084,0
		c-0.096-0.035-0.107-0.023-0.191,0.24c-0.036,0.12-0.108,0.288-0.145,0.385c-0.036,0.096-0.132,0.311-0.191,0.479
		c-0.084,0.252-0.108,0.336-0.132,0.504c-0.036,0.204-0.061,0.408-0.084,0.66c-0.024,0.24-0.024,1.26,0,1.307
		c0.012,0.024,0.012,0.037,0.023,0.037c0.013,0,0.036-0.025,0.072-0.049c0.072-0.048,0.12-0.107,0.216-0.252
		c0.036-0.048,0.096-0.119,0.12-0.156l0.048-0.06l-0.036,0.108c-0.084,0.264-0.204,0.563-0.312,0.756
		c-0.108,0.191-0.108,0.215-0.108,0.252c0,0.023,0.013,0.047,0,0.06c-0.012,0.024-0.023,0.024-0.071,0
		c-0.12-0.06-0.216-0.252-0.216-0.42c0.012-0.144,0-0.348,0-1.128c0-0.839,0-1.055,0.048-1.402c0.071-0.54,0.119-1.176,0.144-1.775
		c0.012-0.336,0.024-0.384,0.036-0.42c0.023-0.035,0.048-0.061,0.072-0.072c0.048-0.023,0.071-0.072,0.071-0.131
		c0-0.013,0.013-0.037,0.024-0.024c0.036,0.012,0.072,0,0.072-0.024c0-0.012,0.012-0.035,0.023-0.035s0.036-0.024,0.06-0.049
		c0.024-0.023,0.061-0.048,0.072-0.048c0.036,0,0.132,0.048,0.18,0.097c0.072,0.06,0.084,0.119,0.072,0.239v0.097l0.06-0.049
		c0.168-0.119,0.517-0.408,0.517-0.432c0-0.012-0.036-0.036-0.072-0.061C4.17,32.5,3.942,32.284,3.763,32.068
		c-0.181-0.228-0.265-0.407-0.276-0.647c-0.012-0.204,0.012-0.275,0.156-0.564c0.06-0.131,0.144-0.299,0.168-0.359
		c0.084-0.228,0.144-0.527,0.132-0.635c-0.013-0.084-0.024-0.097-0.084-0.061c-0.132,0.072-0.288,0.203-0.384,0.336
		c-0.024,0.035-0.096,0.144-0.168,0.24c-0.312,0.383-0.636,0.827-0.852,1.162c-0.12,0.192-0.192,0.252-0.288,0.313
		c-0.072,0.036-0.06,0.048-0.18-0.048c-0.096-0.072-0.096-0.084-0.072-0.181c0.048-0.168,0.12-0.335,0.229-0.551
		c0.071-0.145,0.155-0.275,0.323-0.54c0.372-0.552,0.768-1.115,0.924-1.271c0.096-0.109,0.239-0.192,0.396-0.276
		c0.072-0.036,0.144-0.084,0.168-0.097c0.024-0.023,0.072-0.035,0.096-0.047c0.024-0.013,0.061-0.037,0.084-0.049
		C4.158,28.782,4.182,28.771,4.194,28.771z M8.464,27.942l0.06,0.049l0.108-0.024c0.144-0.036,0.168-0.036,0.264,0.012
		c0.144,0.072,0.228,0.168,0.264,0.312c0.012,0.024,0.048,0.084,0.084,0.133c0.144,0.156,0.252,0.371,0.3,0.551l0.024,0.084
		l-0.036,0.024c-0.036,0.024-0.156,0.155-0.18,0.192c-0.013,0.012-0.013,0.023-0.013,0.035c0.013,0.012,0.061,0,0.12-0.012
		c0.204-0.035,0.372-0.061,0.624-0.048c0.132,0,0.288,0.013,0.348,0.024c0.096,0.012,0.12,0.012,0.156,0
		c0.071-0.024,0.264-0.024,0.348,0c0.06,0.012,0.084,0.035,0.132,0.084c0.132,0.144,0.312,0.287,0.539,0.432
		c0.108,0.072,0.12,0.084,0.145,0.131c0.023,0.049,0.06,0.097,0.144,0.168c0.084,0.072,0.313,0.528,0.36,0.696
		c0.023,0.071,0.023,0.084-0.036,0.144c-0.061,0.061-0.132,0.096-0.216,0.12c-0.061,0.013-0.12,0.013-0.24,0.013
		c-0.107,0-0.216-0.013-0.264,0c-0.048,0.012-0.132,0.023-0.18,0.023s-0.145,0.012-0.192,0.036c-0.107,0.036-0.3,0.048-0.384,0.012
		c-0.023-0.012-0.06-0.024-0.084-0.024c-0.048,0-0.18,0.049-0.216,0.072c-0.023,0.012-0.048,0.012-0.071,0.012
		c-0.036-0.012-0.072,0-0.181,0.037c-0.168,0.06-0.168,0.06-0.107,0.144c0.071,0.096,0.155,0.239,0.191,0.323l0.024,0.061
		l-0.084,0.035c-0.048,0.024-0.145,0.049-0.216,0.072c-0.072,0.012-0.145,0.036-0.156,0.049c-0.036,0.023-0.072,0.06-0.096,0.119
		c-0.024,0.072-0.072,0.12-0.12,0.145c-0.012,0.012-0.12,0.035-0.228,0.06c-0.108,0.024-0.252,0.06-0.324,0.084
		c-0.096,0.024-0.144,0.036-0.42,0.048c-0.264,0.012-0.3,0.023-0.336,0.036c-0.035,0.024-0.06,0.024-0.084,0.013
		C8.212,32.404,8.2,32.404,8.104,32.44c-0.228,0.084-0.503,0.264-0.707,0.42c-0.12,0.096-0.336,0.312-0.432,0.443
		c-0.097,0.12-0.408,0.468-0.72,0.791c-0.12,0.121-0.229,0.229-0.216,0.24c0.012,0.012,0.084-0.035,0.168-0.096
		c0.899-0.576,1.835-0.983,2.866-1.26c0.228-0.06,0.288-0.071,0.563-0.119c0.168-0.024,0.443-0.096,0.611-0.145
		c0.061-0.023,0.156-0.035,0.204-0.035c0.108-0.013,0.156-0.037,0.229-0.097c0.06-0.048,0.155-0.096,0.216-0.108
		c0.012,0,0.06-0.023,0.084-0.035c0.06-0.036,0.132-0.061,0.191-0.036c0.156,0.048,0.384,0.204,0.516,0.348
		c0.24,0.252,0.312,0.336,0.336,0.384c0.036,0.072,0.072,0.204,0.06,0.216c-0.012,0.024-0.167,0.036-0.3,0.036
		c-0.132,0-0.155,0-0.203,0.036c-0.108,0.071-0.216,0.108-0.372,0.108c-0.096,0-0.156-0.013-0.264-0.037
		c-0.12-0.035-0.145-0.035-0.3-0.023c-0.108,0-0.216,0.023-0.48,0.084c-0.168,0.036-0.384,0.145-0.468,0.216
		c-0.048,0.036-0.048,0.048-0.048,0.097c0,0.023,0,0.071,0.013,0.096c0.012,0.035,0.012,0.047-0.024,0.144
		c-0.048,0.12-0.144,0.252-0.228,0.348c-0.108,0.12-0.324,0.6-0.48,1.079c-0.048,0.133-0.083,0.276-0.107,0.324
		c-0.024,0.061-0.036,0.096-0.036,0.18c0,0.061,0.012,0.12,0.012,0.133c0.024,0.047,0.181,0.239,0.313,0.371
		c0.348,0.348,0.768,0.563,1.259,0.672c0.145,0.023,0.18,0.023,0.42,0.023c0.18,0,0.312,0,0.408-0.012
		c0.239-0.036,0.264-0.048,0.3-0.084c0.06-0.061,0.119-0.203,0.132-0.3l0.012-0.084l-0.048-0.084
		c-0.024-0.048-0.048-0.071-0.048-0.084c0-0.012-0.048-0.06-0.096-0.12c-0.049-0.06-0.12-0.156-0.133-0.18
		c-0.048-0.072-0.155-0.252-0.144-0.252s0.024,0.023,0.048,0.061c0.024,0.035,0.048,0.06,0.061,0.06
		c0.012,0-0.036-0.097-0.132-0.239c-0.049-0.072-0.072-0.121-0.097-0.217c-0.048-0.203-0.107-0.312-0.18-0.396
		c-0.036-0.036-0.096-0.12-0.132-0.18c-0.048-0.084-0.06-0.108-0.048-0.12s0-0.036-0.072-0.12c-0.191-0.251-0.516-0.6-0.563-0.6
		c-0.012,0-0.024-0.012-0.024-0.036c0-0.012,0-0.023,0.013-0.023c0.023,0,0.636,0.563,0.959,0.863
		c0.576,0.539,0.815,0.791,1.523,1.738c0.312,0.408,0.336,0.48,0.348,0.637c0,0.06,0,0.119-0.012,0.144
		c-0.013,0.036-0.013,0.06,0,0.084c0.012,0.024,0.012,0.036,0,0.048c-0.013,0.012-0.013,0.012-0.013,0.023
		c0,0.013-0.023,0.061-0.06,0.108s-0.06,0.084-0.06,0.097c0,0.023-0.168,0.131-0.3,0.191c-0.324,0.156-0.66,0.229-1.092,0.229
		c-0.156,0-0.24,0.012-0.264,0.023c-0.024,0.012-0.036,0.012-0.061,0c-0.023-0.012-0.084-0.012-0.144-0.012
		c-0.156,0-0.359-0.037-0.432-0.072c-0.024-0.012-0.168-0.072-0.3-0.12c-0.288-0.108-0.396-0.155-0.611-0.264
		c-0.301-0.144-0.552-0.323-0.804-0.528c-0.42-0.348-0.744-0.814-0.936-1.355c-0.036-0.107-0.048-0.155-0.048-0.203
		c0-0.036,0.012-0.096,0.023-0.107c0.012-0.024,0.036-0.121,0.061-0.229c0.048-0.203,0.132-0.516,0.18-0.66
		c0.023-0.071,0.023-0.084,0.012-0.084c-0.023,0-0.468,0.396-0.852,0.768c-0.479,0.469-1.163,1.212-1.331,1.439
		c-0.048,0.072-0.096,0.108-0.144,0.145c-0.036,0.023-0.084,0.06-0.097,0.084c-0.023,0.035-0.023,0.048,0,0.06
		c0.024,0.013,0.024,0.013-0.012,0.036c-0.024,0.012-0.168,0.132-0.336,0.264c-0.407,0.324-0.516,0.408-0.552,0.408
		c-0.048,0-0.204,0.048-0.312,0.096c-0.072,0.036-0.12,0.061-0.132,0.048c-0.012,0-0.012-0.036-0.024-0.06
		c-0.023-0.049-0.036-0.036,0-0.108c0.013-0.036,0.036-0.084,0.036-0.096c0-0.048,0.432-0.54,0.72-0.815
		c0.168-0.168,0.191-0.191,0.228-0.191c0.024,0,0.024,0.012-0.012,0.047c-0.024,0.024-0.036,0.049-0.048,0.072
		s-0.048,0.072-0.084,0.12c-0.048,0.071-0.108,0.239-0.096,0.252c0.012,0.012,0.036-0.013,0.06-0.013
		c0.048-0.012,0.084-0.023,0.216-0.131c0.336-0.276,0.588-0.528,1.128-1.08c0.503-0.516,0.923-0.959,1.019-1.092
		c0.049-0.06,0.097-0.131,0.12-0.144c0.024-0.012,0.036-0.036,0.036-0.048s0.072-0.084,0.144-0.156
		c0.217-0.215,0.385-0.443,0.504-0.695l0.048-0.107L8.2,33.808l-0.049-0.061l-0.048,0.024c-0.012,0-0.096,0.024-0.155,0.036
		c-0.156,0.012-0.156,0.012-0.444,0.156c-0.144,0.071-0.264,0.131-0.275,0.131s-0.096,0.061-0.216,0.121
		c-0.372,0.203-0.72,0.407-1.056,0.646c-0.191,0.145-0.42,0.301-0.684,0.48l-0.204,0.145v0.047c0,0.036,0,0.049-0.036,0.084
		c-0.048,0.049-0.071,0.061-0.18,0.096c-0.191,0.061-0.323,0.037-0.42-0.06c-0.096-0.096-0.132-0.216-0.096-0.323
		c0.012-0.024,0.012-0.061,0.012-0.072c0-0.023,0.108-0.12,0.204-0.18c0.024-0.012,0.048-0.036,0.048-0.049
		c0-0.012,0.012-0.012,0.048,0c0.061,0.013,0.192,0,0.265-0.023c0.071-0.036,0.731-0.432,0.779-0.48
		c0.072-0.071,0.539-0.6,0.743-0.839c0.36-0.432,0.768-0.972,1.056-1.38l0.12-0.167l-0.048-0.084
		c-0.061-0.097-0.192-0.288-0.288-0.396c-0.072-0.084-0.12-0.156-0.144-0.24c-0.013-0.048-0.013-0.048,0.035-0.084
		c0.024-0.023,0.061-0.072,0.084-0.107c0.036-0.061,0.049-0.072,0.132-0.108c0.145-0.06,0.192-0.108,0.252-0.204
		c0.036-0.061,0.072-0.096,0.097-0.107c0.023-0.012,0.048-0.024,0.06-0.049c0.012-0.023,0.036-0.035,0.048-0.035
		s0.048-0.012,0.072-0.024c0.048-0.024,0.048-0.024,0.107,0c0.036,0.013,0.097,0.013,0.145,0.013s0.084-0.013,0.168-0.049
		c0.084-0.048,0.107-0.048,0.203-0.048c0.097,0,0.133,0,0.204,0.024c0.084,0.023,0.084,0.023,0.132,0.012
		c0.036-0.012,0.084-0.012,0.156-0.012c0.084,0,0.108,0.012,0.156,0.047c0.035,0.025,0.084,0.049,0.107,0.061l0.048,0.012
		l0.145-0.119c0.275-0.229,0.468-0.408,0.671-0.6l0.204-0.192l-0.048-0.048c-0.107-0.084-0.312-0.168-0.359-0.145
		c-0.013,0.013-0.024,0.013-0.048,0c-0.049-0.012-0.097-0.012-0.156,0.013c-0.036,0.012-0.061,0.012-0.096,0
		c-0.036-0.013-0.048-0.013-0.156,0.036c-0.168,0.084-0.312,0.18-0.468,0.336c-0.191,0.191-0.3,0.239-0.492,0.228
		c-0.06,0-0.084-0.013-0.132-0.048c-0.084-0.049-0.119-0.061-0.203-0.024c-0.12,0.048-0.313,0.097-0.36,0.097
		c-0.156,0-0.899,0.323-1.151,0.516c-0.107,0.084-0.191,0.228-0.228,0.371c-0.036,0.156-0.145,0.359-0.264,0.54
		c-0.108,0.155-0.145,0.192-0.181,0.216c-0.06,0.036-0.071,0.036-0.107,0.023c-0.048-0.012-0.12,0-0.144,0.024
		c-0.013,0.013-0.024,0.013-0.036,0.013c-0.048,0-0.265-0.289-0.372-0.492c-0.048-0.107-0.048-0.107-0.036-0.18
		c0.036-0.18,0.42-0.708,0.744-0.996c0.083-0.072,0.083-0.072,0.107-0.048c0.072,0.06,0.072,0.132,0.012,0.288
		c-0.048,0.119-0.107,0.313-0.096,0.336c0,0.012,0.06-0.023,0.108-0.061c0.371-0.299,0.647-0.479,1.187-0.756l0.324-0.155
		L7.624,29.85c-0.132-0.144-0.204-0.312-0.204-0.491c0-0.084-0.012-0.108-0.048-0.156c-0.084-0.12-0.144-0.275-0.132-0.396
		c0.024-0.203,0.36-0.6,0.624-0.73c0.036-0.013,0.071-0.037,0.096-0.061c0.036-0.036,0.048-0.048,0.156-0.048
		c0.107,0,0.132,0,0.191-0.024c0.036-0.023,0.072-0.035,0.072-0.048C8.392,27.87,8.392,27.883,8.464,27.942z M10.922,35.175
		l-0.035-0.036l0.035,0.048c0.024,0.024,0.084,0.12,0.156,0.204c0.18,0.216,0.324,0.407,0.479,0.624
		c0.072,0.107,0.132,0.18,0.132,0.168c0-0.024-0.096-0.217-0.132-0.264c-0.023-0.037-0.084-0.108-0.119-0.168
		c-0.108-0.168-0.252-0.348-0.372-0.457C11.006,35.235,10.946,35.187,10.922,35.175z"/>
</g>
</svg>
